{"glyphs":{"0":{"ha":833,"x_min":0,"x_max":694,"o":"m 0 972 l 139 972 l 139 1111 l 556 1111 l 556 972 l 694 972 l 694 139 l 556 139 l 556 0 l 139 0 l 139 139 l 0 139 l 0 972 m 139 417 l 278 417 l 278 556 l 417 556 l 417 694 l 556 694 l 556 972 l 139 972 l 139 417 m 556 556 l 417 556 l 417 417 l 278 417 l 278 278 l 139 278 l 139 139 l 556 139 l 556 556 z "},"1":{"ha":833,"x_min":0,"x_max":694,"o":"m 0 833 l 139 833 l 139 972 l 278 972 l 278 1111 l 417 1111 l 417 139 l 694 139 l 694 0 l 0 0 l 0 139 l 278 139 l 278 833 l 139 833 l 139 694 l 0 694 l 0 833 z "},"2":{"ha":833,"x_min":0,"x_max":694,"o":"m 0 1111 l 556 1111 l 556 972 l 694 972 l 694 694 l 556 694 l 556 556 l 417 556 l 417 417 l 278 417 l 278 278 l 139 278 l 139 139 l 556 139 l 556 278 l 694 278 l 694 0 l 0 0 l 0 278 l 139 278 l 139 417 l 278 417 l 278 556 l 417 556 l 417 694 l 556 694 l 556 972 l 139 972 l 139 833 l 0 833 l 0 1111 z "},"3":{"ha":833,"x_min":0,"x_max":694,"o":"m 0 1111 l 556 1111 l 556 972 l 694 972 l 694 694 l 556 694 l 556 556 l 694 556 l 694 139 l 556 139 l 556 0 l 0 0 l 0 278 l 139 278 l 139 139 l 556 139 l 556 556 l 278 556 l 278 694 l 556 694 l 556 972 l 139 972 l 139 833 l 0 833 l 0 1111 z "},"4":{"ha":833,"x_min":0,"x_max":694,"o":"m 0 694 l 139 694 l 139 833 l 278 833 l 278 972 l 417 972 l 417 1111 l 556 1111 l 556 556 l 694 556 l 694 417 l 556 417 l 556 139 l 694 139 l 694 0 l 278 0 l 278 139 l 417 139 l 417 417 l 0 417 l 0 694 m 139 694 l 139 556 l 417 556 l 417 833 l 278 833 l 278 694 l 139 694 z "},"5":{"ha":833,"x_min":0,"x_max":694,"o":"m 0 1111 l 694 1111 l 694 833 l 556 833 l 556 972 l 139 972 l 139 694 l 556 694 l 556 556 l 694 556 l 694 139 l 556 139 l 556 0 l 0 0 l 0 278 l 139 278 l 139 139 l 556 139 l 556 556 l 0 556 l 0 1111 z "},"6":{"ha":833,"x_min":0,"x_max":694,"o":"m 0 972 l 139 972 l 139 1111 l 694 1111 l 694 833 l 556 833 l 556 972 l 139 972 l 139 694 l 556 694 l 556 556 l 694 556 l 694 139 l 556 139 l 556 0 l 139 0 l 139 139 l 0 139 l 0 972 m 139 139 l 556 139 l 556 556 l 139 556 l 139 139 z "},"7":{"ha":833,"x_min":0,"x_max":694,"o":"m 0 1111 l 694 1111 l 694 694 l 556 694 l 556 556 l 417 556 l 417 0 l 278 0 l 278 556 l 417 556 l 417 694 l 556 694 l 556 972 l 139 972 l 139 833 l 0 833 l 0 1111 z "},"8":{"ha":833,"x_min":0,"x_max":694,"o":"m 0 972 l 139 972 l 139 1111 l 556 1111 l 556 972 l 694 972 l 694 694 l 556 694 l 556 556 l 694 556 l 694 139 l 556 139 l 556 0 l 139 0 l 139 139 l 0 139 l 0 556 l 139 556 l 139 694 l 0 694 l 0 972 m 556 556 l 139 556 l 139 139 l 556 139 l 556 556 m 139 972 l 139 694 l 556 694 l 556 971 l 139 972 z "},"9":{"ha":833,"x_min":0,"x_max":694,"o":"m 0 972 l 139 972 l 139 1111 l 556 1111 l 556 972 l 694 972 l 694 139 l 556 139 l 556 0 l 139 0 l 139 139 l 0 139 l 0 278 l 139 278 l 139 139 l 556 139 l 556 417 l 139 417 l 139 556 l 0 556 l 0 972 m 139 556 l 556 556 l 556 972 l 139 972 l 139 556 z "}," ":{"ha":833,"x_min":0,"x_max":0,"o":""}," ":{"ha":833,"x_min":0,"x_max":0,"o":""},"$":{"ha":833,"x_min":0,"x_max":694,"o":"m 0 972 l 139 972 l 139 1111 l 278 1111 l 278 1250 l 417 1250 l 417 1111 l 694 1111 l 694 833 l 556 833 l 556 972 l 417 972 l 417 694 l 556 694 l 556 556 l 694 556 l 694 139 l 556 139 l 556 0 l 417 0 l 417 -139 l 278 -139 l 278 0 l 0 0 l 0 278 l 139 278 l 139 139 l 278 139 l 278 556 l 139 556 l 139 694 l 0 694 l 0 972 m 556 556 l 417 556 l 417 139 l 556 139 l 556 556 m 139 694 l 278 694 l 278 972 l 139 972 l 139 694 z "},"%":{"ha":972,"x_min":0,"x_max":833,"o":"m 0 139 l 139 139 l 139 278 l 278 278 l 278 417 l 417 417 l 417 556 l 556 556 l 556 694 l 694 694 l 694 833 l 833 833 l 833 694 l 694 694 l 694 556 l 556 556 l 556 417 l 417 417 l 417 278 l 278 278 l 278 139 l 139 139 l 139 0 l 0 0 l 0 139 m 0 833 l 278 833 l 278 556 l 0 556 l 0 833 m 556 278 l 833 278 l 833 0 l 556 0 l 556 278 z "},"&":{"ha":972,"x_min":0,"x_max":833,"o":"m 0 972 l 139 972 l 139 1111 l 417 1111 l 417 972 l 556 972 l 556 694 l 833 694 l 833 556 l 556 556 l 556 139 l 833 139 l 833 0 l 556 0 l 556 139 l 417 139 l 417 0 l 139 0 l 139 139 l 0 139 l 0 556 l 139 556 l 139 694 l 0 694 l 0 972 m 139 139 l 417 139 l 417 556 l 139 556 l 139 139 m 139 694 l 417 694 l 417 972 l 139 972 l 139 694 m 417 556 l 556 556 l 556 694 l 417 694 l 417 556 z "},"'":{"ha":278,"x_min":0,"x_max":139,"o":"m 0 1111 l 139 1111 l 139 694 l 0 694 l 0 1111 z "},"(":{"ha":556,"x_min":0,"x_max":417,"o":"m 0 972 l 139 972 l 139 1111 l 417 1111 l 417 972 l 139 972 l 139 139 l 417 139 l 417 0 l 139 0 l 139 139 l 0 139 l 0 972 z "},")":{"ha":556,"x_min":0,"x_max":417,"o":"m 0 1111 l 278 1111 l 278 972 l 417 972 l 417 139 l 278 139 l 278 0 l 0 0 l 0 139 l 278 139 l 278 972 l 0 972 l 0 1111 z "},"*":{"ha":833,"x_min":0,"x_max":694,"o":"m 139 833 l 278 833 l 278 694 l 417 694 l 417 833 l 556 833 l 556 694 l 417 694 l 417 556 l 694 556 l 694 417 l 417 417 l 417 278 l 556 278 l 556 139 l 417 139 l 417 278 l 278 278 l 278 139 l 139 139 l 139 278 l 278 278 l 278 417 l 0 417 l 0 556 l 278 556 l 278 694 l 139 694 l 139 833 z "},"+":{"ha":833,"x_min":0,"x_max":694,"o":"m 0 556 l 278 556 l 278 833 l 417 833 l 417 556 l 694 556 l 694 417 l 417 417 l 417 139 l 278 139 l 278 417 l 0 417 l 0 556 z "},",":{"ha":417,"x_min":0,"x_max":278,"o":"m 0 278 l 278 278 l 278 -139 l 139 -139 l 139 -278 l 0 -278 l 0 -139 l 139 -139 l 139 139 l 0 139 l 0 278 z "},"-":{"ha":833,"x_min":0,"x_max":694,"o":"m 0 556 l 694 556 l 694 417 l 0 417 l 0 556 z "},".":{"ha":278,"x_min":0,"x_max":139,"o":"m 0 139 l 139 139 l 139 0 l 0 0 l 0 139 z "},"/":{"ha":972,"x_min":0,"x_max":833,"o":"m 0 139 l 139 139 l 139 278 l 278 278 l 278 417 l 417 417 l 417 556 l 556 556 l 556 694 l 694 694 l 694 833 l 833 833 l 833 694 l 694 694 l 694 556 l 556 556 l 556 417 l 417 417 l 417 278 l 278 278 l 278 139 l 139 139 l 139 0 l 0 0 l 0 139 z "},":":{"ha":278,"x_min":0,"x_max":139,"o":"m 0 694 l 139 694 l 139 556 l 0 556 l 0 694 m 0 417 l 139 417 l 139 278 l 0 278 l 0 417 z "},";":{"ha":418,"x_min":0,"x_max":278,"o":"m 0 278 l 278 278 l 278 -139 l 139 -139 l 139 -278 l 0 -278 l 0 -139 l 139 -139 l 139 139 l 0 139 l 0 278 m 0 694 l 139 694 l 139 556 l 0 556 l 0 694 z "},"<":{"ha":556,"x_min":0,"x_max":417,"o":"m 0 556 l 139 556 l 139 694 l 278 694 l 278 833 l 417 833 l 417 694 l 278 694 l 278 556 l 139 556 l 139 417 l 278 417 l 278 278 l 417 278 l 417 139 l 278 139 l 278 278 l 139 278 l 139 417 l 0 417 l 0 556 z "},"=":{"ha":833,"x_min":0,"x_max":694,"o":"m 0 694 l 694 694 l 694 556 l 0 556 l 0 694 m 0 417 l 694 417 l 694 278 l 0 278 l 0 417 z "},">":{"ha":556,"x_min":0,"x_max":417,"o":"m 0 833 l 139 833 l 139 694 l 278 694 l 278 556 l 417 556 l 417 417 l 278 417 l 278 278 l 139 278 l 139 139 l 0 139 l 0 278 l 139 278 l 139 417 l 278 417 l 278 556 l 139 556 l 139 694 l 0 694 l 0 833 z "},"?":{"ha":833,"x_min":0,"x_max":694,"o":"m 0 1111 l 556 1111 l 556 972 l 694 972 l 694 694 l 556 694 l 556 556 l 417 556 l 417 278 l 278 278 l 278 556 l 417 556 l 417 694 l 556 694 l 556 972 l 139 972 l 139 833 l 0 833 l 0 1111 m 278 139 l 417 139 l 417 0 l 278 0 l 278 139 z "},"@":{"ha":833,"x_min":0,"x_max":694,"o":"m 278 833 l 556 833 l 556 972 l 139 972 l 139 139 l 694 139 l 694 0 l 139 0 l 139 139 l 0 139 l 0 972 l 139 972 l 139 1111 l 556 1111 l 556 972 l 694 972 l 694 278 l 278 278 l 278 833 m 417 417 l 556 417 l 556 694 l 417 694 l 417 417 z "},"A":{"ha":1111,"x_min":0,"x_max":972,"o":"m 0 139 l 139 139 l 139 972 l 278 972 l 278 1111 l 694 1111 l 694 972 l 833 972 l 833 139 l 972 139 l 972 0 l 556 0 l 556 139 l 694 139 l 694 417 l 278 417 l 278 139 l 417 139 l 417 0 l 0 0 l 0 139 m 278 556 l 694 556 l 694 972 l 278 972 l 278 556 z "},"B":{"ha":972,"x_min":0,"x_max":833,"o":"m 0 1111 l 694 1111 l 694 972 l 833 972 l 833 694 l 694 694 l 694 556 l 833 556 l 833 139 l 694 139 l 694 0 l 0 0 l 0 139 l 139 139 l 139 972 l 0 972 l 0 1111 m 278 139 l 694 139 l 694 556 l 278 556 l 278 139 m 278 694 l 694 694 l 694 972 l 278 972 l 278 694 z "},"C":{"ha":833,"x_min":0,"x_max":694,"o":"m 556 972 l 139 972 l 139 139 l 556 139 l 556 278 l 694 278 l 694 0 l 139 0 l 139 139 l 0 139 l 0 972 l 139 972 l 139 1111 l 694 1111 l 694 833 l 556 833 l 556 972 z "},"D":{"ha":972,"x_min":0,"x_max":833,"o":"m 0 1111 l 694 1111 l 694 972 l 833 972 l 833 139 l 694 139 l 694 0 l 0 0 l 0 139 l 139 139 l 139 972 l 0 972 l 0 1111 m 694 972 l 278 972 l 278 139 l 694 139 l 694 972 z "},"E":{"ha":972,"x_min":0,"x_max":833,"o":"m 0 1111 l 833 1111 l 833 833 l 694 833 l 694 972 l 278 972 l 278 694 l 556 694 l 556 556 l 278 556 l 278 139 l 694 139 l 694 278 l 833 278 l 833 0 l 0 0 l 0 139 l 139 139 l 139 972 l 0 972 l 0 1111 z "},"F":{"ha":972,"x_min":0,"x_max":833,"o":"m 0 1111 l 833 1111 l 833 833 l 694 833 l 694 972 l 278 972 l 278 694 l 556 694 l 556 556 l 278 556 l 278 139 l 417 139 l 417 0 l 0 0 l 0 139 l 139 139 l 139 972 l 0 972 l 0 1111 z "},"G":{"ha":833,"x_min":0,"x_max":694,"o":"m 0 972 l 139 972 l 139 1111 l 694 1111 l 694 833 l 556 833 l 556 972 l 139 972 l 139 139 l 556 139 l 556 417 l 278 417 l 278 556 l 694 556 l 694 0 l 139 0 l 139 139 l 0 139 l 0 972 z "},"H":{"ha":1111,"x_min":0,"x_max":972,"o":"m 0 1111 l 417 1111 l 417 972 l 278 972 l 278 694 l 694 694 l 694 972 l 556 972 l 556 1111 l 972 1111 l 972 972 l 833 972 l 833 139 l 972 139 l 972 0 l 556 0 l 556 139 l 694 139 l 694 556 l 278 556 l 278 139 l 417 139 l 417 0 l 0 0 l 0 139 l 139 139 l 139 972 l 0 972 l 0 1111 z "},"I":{"ha":833,"x_min":0,"x_max":694,"o":"m 0 1111 l 694 1111 l 694 972 l 417 972 l 417 139 l 694 139 l 694 0 l 0 0 l 0 139 l 278 139 l 278 972 l 0 972 l 0 1111 z "},"J":{"ha":833,"x_min":0,"x_max":694,"o":"m 0 1111 l 694 1111 l 694 139 l 556 139 l 556 0 l 139 0 l 139 139 l 0 139 l 0 417 l 139 417 l 139 139 l 556 139 l 556 972 l 139 972 l 139 833 l 0 833 l 0 1111 z "},"K":{"ha":1111,"x_min":0,"x_max":972,"o":"m 0 1111 l 417 1111 l 417 972 l 278 972 l 278 694 l 556 694 l 556 833 l 694 833 l 694 972 l 556 972 l 556 1111 l 972 1111 l 972 972 l 833 972 l 833 833 l 694 833 l 694 694 l 556 694 l 556 556 l 694 556 l 694 417 l 833 417 l 833 139 l 972 139 l 972 0 l 556 0 l 556 139 l 694 139 l 694 417 l 556 417 l 556 556 l 278 556 l 278 139 l 417 139 l 417 0 l 0 0 l 0 139 l 139 139 l 139 972 l 0 972 l 0 1111 z "},"L":{"ha":972,"x_min":0,"x_max":833,"o":"m 0 1111 l 417 1111 l 417 972 l 278 972 l 278 139 l 694 139 l 694 278 l 833 278 l 833 0 l 0 0 l 0 139 l 139 139 l 139 972 l 0 972 l 0 1111 z "},"M":{"ha":1111,"x_min":0,"x_max":972,"o":"m 0 1111 l 417 1111 l 417 972 l 278 972 l 278 833 l 417 833 l 417 694 l 556 694 l 556 833 l 694 833 l 694 972 l 556 972 l 556 1111 l 972 1111 l 972 972 l 833 972 l 833 139 l 972 139 l 972 0 l 556 0 l 556 139 l 694 139 l 694 694 l 556 694 l 556 417 l 417 417 l 417 694 l 278 694 l 278 139 l 417 139 l 417 0 l 0 0 l 0 139 l 139 139 l 139 972 l 0 972 l 0 1111 z "},"N":{"ha":1111,"x_min":0,"x_max":972,"o":"m 0 1111 l 417 1111 l 417 972 l 278 972 l 278 833 l 417 833 l 417 694 l 556 694 l 556 556 l 694 556 l 694 972 l 556 972 l 556 1111 l 972 1111 l 972 972 l 833 972 l 833 139 l 972 139 l 972 0 l 556 0 l 556 139 l 694 139 l 694 417 l 556 417 l 556 556 l 417 556 l 417 694 l 278 694 l 278 139 l 417 139 l 417 0 l 0 0 l 0 139 l 139 139 l 139 972 l 0 972 l 0 1111 z "},"O":{"ha":833,"x_min":0,"x_max":694,"o":"m 0 972 l 139 972 l 139 1111 l 556 1111 l 556 972 l 694 972 l 694 139 l 556 139 l 556 0 l 139 0 l 139 139 l 0 139 l 0 972 m 556 972 l 139 972 l 139 139 l 556 139 l 556 972 z "},"P":{"ha":972,"x_min":0,"x_max":833,"o":"m 0 1111 l 694 1111 l 694 972 l 833 972 l 833 556 l 694 556 l 694 417 l 278 417 l 278 139 l 417 139 l 417 0 l 0 0 l 0 139 l 139 139 l 139 972 l 0 972 l 0 1111 m 278 556 l 694 556 l 694 972 l 278 972 l 278 556 z "},"Q":{"ha":833,"x_min":0,"x_max":694,"o":"m 0 972 l 139 972 l 139 1111 l 556 1111 l 556 972 l 694 972 l 694 -139 l 556 -139 l 556 0 l 139 0 l 139 139 l 0 139 l 0 972 m 139 139 l 556 139 l 556 972 l 139 972 l 139 139 z "},"R":{"ha":1111,"x_min":0,"x_max":972,"o":"m 0 1111 l 694 1111 l 694 972 l 833 972 l 833 556 l 694 556 l 694 278 l 833 278 l 833 139 l 972 139 l 972 0 l 556 0 l 556 139 l 694 139 l 694 278 l 556 278 l 556 417 l 278 417 l 278 139 l 417 139 l 417 0 l 0 0 l 0 139 l 139 139 l 139 972 l 0 972 l 0 1111 m 278 972 l 278 556 l 694 556 l 694 971 l 278 972 z "},"S":{"ha":833,"x_min":0,"x_max":694,"o":"m 0 972 l 139 972 l 139 1111 l 694 1111 l 694 833 l 556 833 l 556 972 l 139 972 l 139 694 l 556 694 l 556 556 l 694 556 l 694 139 l 556 139 l 556 0 l 0 0 l 0 278 l 139 278 l 139 139 l 556 139 l 556 556 l 139 556 l 139 694 l 0 694 l 0 972 z "},"T":{"ha":1111,"x_min":0,"x_max":972,"o":"m 0 1111 l 972 1111 l 972 833 l 833 833 l 833 972 l 556 972 l 556 139 l 694 139 l 694 0 l 278 0 l 278 139 l 417 139 l 417 972 l 139 972 l 139 833 l 0 833 l 0 1111 z "},"U":{"ha":1111,"x_min":0,"x_max":972,"o":"m 0 1111 l 417 1111 l 417 972 l 278 972 l 278 139 l 694 139 l 694 972 l 556 972 l 556 1111 l 972 1111 l 972 972 l 833 972 l 833 139 l 694 139 l 694 0 l 278 0 l 278 139 l 139 139 l 139 972 l 0 972 l 0 1111 z "},"V":{"ha":1111,"x_min":0,"x_max":972,"o":"m 0 1111 l 417 1111 l 417 972 l 278 972 l 278 278 l 417 278 l 417 139 l 556 139 l 556 278 l 694 278 l 694 972 l 556 972 l 556 1111 l 972 1111 l 972 972 l 833 972 l 833 278 l 694 278 l 694 139 l 556 139 l 556 0 l 417 0 l 417 139 l 278 139 l 278 278 l 139 278 l 139 972 l 0 972 l 0 1111 z "},"W":{"ha":1389,"x_min":0,"x_max":1250,"o":"m 0 1111 l 417 1111 l 417 972 l 278 972 l 278 139 l 556 139 l 556 833 l 694 833 l 694 139 l 972 139 l 972 972 l 833 972 l 833 1111 l 1250 1111 l 1250 972 l 1111 972 l 1111 139 l 972 139 l 972 0 l 694 0 l 694 139 l 556 139 l 556 0 l 278 0 l 278 139 l 139 139 l 139 972 l 0 972 l 0 1111 z "},"X":{"ha":1111,"x_min":0,"x_max":972,"o":"m 0 1111 l 417 1111 l 417 972 l 278 972 l 278 833 l 417 833 l 417 694 l 556 694 l 556 833 l 694 833 l 694 972 l 556 972 l 556 1111 l 972 1111 l 972 972 l 833 972 l 833 833 l 694 833 l 694 694 l 556 694 l 556 417 l 694 417 l 694 278 l 833 278 l 833 139 l 972 139 l 972 0 l 556 0 l 556 139 l 694 139 l 694 278 l 556 278 l 556 417 l 417 417 l 417 278 l 278 278 l 278 139 l 417 139 l 417 0 l 0 0 l 0 139 l 139 139 l 139 278 l 278 278 l 278 417 l 417 417 l 417 694 l 278 694 l 278 833 l 139 833 l 139 972 l 0 972 l 0 1111 z "},"Y":{"ha":1111,"x_min":0,"x_max":972,"o":"m 0 1111 l 417 1111 l 417 972 l 278 972 l 278 833 l 417 833 l 417 694 l 556 694 l 556 833 l 694 833 l 694 972 l 556 972 l 556 1111 l 972 1111 l 972 972 l 833 972 l 833 833 l 694 833 l 694 694 l 556 694 l 556 139 l 694 139 l 694 0 l 278 0 l 278 139 l 417 139 l 417 694 l 278 694 l 278 833 l 139 833 l 139 972 l 0 972 l 0 1111 z "},"Z":{"ha":972,"x_min":0,"x_max":833,"o":"m 0 1111 l 833 1111 l 833 833 l 694 833 l 694 694 l 556 694 l 556 556 l 417 556 l 417 417 l 278 417 l 278 278 l 139 278 l 139 139 l 694 139 l 694 278 l 833 278 l 833 0 l 0 0 l 0 278 l 139 278 l 139 417 l 278 417 l 278 556 l 417 556 l 417 694 l 556 694 l 556 833 l 694 833 l 694 972 l 139 972 l 139 833 l 0 833 l 0 1111 z "},"[":{"ha":556,"x_min":0,"x_max":417,"o":"m 0 1111 l 417 1111 l 417 972 l 139 972 l 139 139 l 417 139 l 417 0 l 0 0 l 0 1111 z "},"\\":{"ha":972,"x_min":0,"x_max":833,"o":"m 0 833 l 139 833 l 139 694 l 278 694 l 278 556 l 417 556 l 417 417 l 556 417 l 556 278 l 694 278 l 694 139 l 833 139 l 833 0 l 694 0 l 694 139 l 556 139 l 556 278 l 417 278 l 417 417 l 278 417 l 278 556 l 139 556 l 139 694 l 0 694 l 0 833 z "},"]":{"ha":556,"x_min":0,"x_max":417,"o":"m 0 1111 l 417 1111 l 417 0 l 0 0 l 0 139 l 278 139 l 278 972 l 0 972 l 0 1111 z "},"^":{"ha":833,"x_min":0,"x_max":694,"o":"m 0 833 l 139 833 l 139 972 l 278 972 l 278 1111 l 417 1111 l 417 972 l 556 972 l 556 833 l 694 833 l 694 694 l 556 694 l 556 833 l 417 833 l 417 972 l 278 972 l 278 833 l 139 833 l 139 694 l 0 694 l 0 833 z "},"_":{"ha":833,"x_min":0,"x_max":694,"o":"m 0 139 l 694 139 l 694 0 l 0 0 l 0 139 z "},"`":{"ha":417,"x_min":0,"x_max":278,"o":"m 0 1111 l 139 1111 l 139 972 l 278 972 l 278 833 l 139 833 l 139 972 l 0 972 l 0 1111 z "},"a":{"ha":833,"x_min":0,"x_max":694,"o":"m 139 833 l 556 833 l 556 694 l 694 694 l 694 0 l 139 0 l 139 139 l 0 139 l 0 417 l 139 417 l 139 556 l 556 556 l 556 694 l 139 694 l 139 833 m 139 139 l 556 139 l 556 417 l 139 417 l 139 139 z "},"b":{"ha":972,"x_min":0,"x_max":833,"o":"m 0 1111 l 417 1111 l 417 972 l 278 972 l 278 833 l 694 833 l 694 694 l 833 694 l 833 139 l 694 139 l 694 0 l 0 0 l 0 139 l 139 139 l 139 972 l 0 972 l 0 1111 m 278 139 l 694 139 l 694 694 l 278 694 l 278 139 z "},"c":{"ha":833,"x_min":0,"x_max":694,"o":"m 556 694 l 139 694 l 139 139 l 556 139 l 556 278 l 694 278 l 694 0 l 139 0 l 139 139 l 0 139 l 0 694 l 139 694 l 139 833 l 694 833 l 694 556 l 556 556 l 556 694 z "},"d":{"ha":972,"x_min":0,"x_max":833,"o":"m 417 1111 l 833 1111 l 833 972 l 694 972 l 694 139 l 833 139 l 833 0 l 139 0 l 139 139 l 0 139 l 0 694 l 139 694 l 139 833 l 556 833 l 556 972 l 417 972 l 417 1111 m 139 139 l 556 139 l 556 694 l 139 694 l 139 139 z "},"e":{"ha":833,"x_min":0,"x_max":694,"o":"m 0 694 l 139 694 l 139 833 l 556 833 l 556 694 l 694 694 l 694 278 l 139 278 l 139 139 l 694 139 l 694 0 l 139 0 l 139 139 l 0 139 l 0 694 m 139 417 l 556 417 l 556 694 l 139 694 l 139 417 z "},"f":{"ha":833,"x_min":0,"x_max":694,"o":"m 0 833 l 139 833 l 139 972 l 278 972 l 278 1111 l 694 1111 l 694 972 l 278 972 l 278 833 l 556 833 l 556 694 l 278 694 l 278 139 l 417 139 l 417 0 l 0 0 l 0 139 l 139 139 l 139 694 l 0 694 l 0 833 z "},"g":{"ha":833,"x_min":0,"x_max":694,"o":"m 0 694 l 139 694 l 139 833 l 694 833 l 694 -139 l 556 -139 l 556 -278 l 139 -278 l 139 -139 l 556 -139 l 556 0 l 139 0 l 139 139 l 0 139 l 0 694 m 139 139 l 556 139 l 556 694 l 139 694 l 139 139 z "},"h":{"ha":1111,"x_min":0,"x_max":972,"o":"m 0 1111 l 417 1111 l 417 972 l 278 972 l 278 833 l 694 833 l 694 694 l 833 694 l 833 139 l 972 139 l 972 0 l 556 0 l 556 139 l 694 139 l 694 694 l 278 694 l 278 139 l 417 139 l 417 0 l 0 0 l 0 139 l 139 139 l 139 972 l 0 972 l 0 1111 z "},"i":{"ha":556,"x_min":0,"x_max":417,"o":"m 0 833 l 278 833 l 278 139 l 417 139 l 417 0 l 0 0 l 0 139 l 139 139 l 139 694 l 0 694 l 0 833 m 139 1111 l 278 1111 l 278 972 l 139 972 l 139 1111 z "},"j":{"ha":694,"x_min":0,"x_max":556,"o":"m 0 833 l 556 833 l 556 -139 l 417 -139 l 417 -278 l 0 -278 l 0 -139 l 417 -139 l 417 694 l 139 694 l 139 556 l 0 556 l 0 833 m 278 1111 l 417 1111 l 417 972 l 278 972 l 278 1111 z "},"k":{"ha":1111,"x_min":0,"x_max":972,"o":"m 0 1111 l 417 1111 l 417 972 l 278 972 l 278 556 l 556 556 l 556 833 l 972 833 l 972 694 l 694 694 l 694 556 l 556 556 l 556 417 l 694 417 l 694 278 l 833 278 l 833 139 l 972 139 l 972 0 l 556 0 l 556 139 l 694 139 l 694 278 l 556 278 l 556 417 l 278 417 l 278 139 l 417 139 l 417 0 l 0 0 l 0 139 l 139 139 l 139 972 l 0 972 l 0 1111 z "},"l":{"ha":556,"x_min":0,"x_max":417,"o":"m 0 1111 l 278 1111 l 278 139 l 417 139 l 417 0 l 0 0 l 0 139 l 139 139 l 139 972 l 0 972 l 0 1111 z "},"m":{"ha":1389,"x_min":0,"x_max":1250,"o":"m 0 833 l 556 833 l 556 694 l 694 694 l 694 833 l 972 833 l 972 694 l 1111 694 l 1111 139 l 1250 139 l 1250 0 l 833 0 l 833 139 l 972 139 l 972 694 l 694 694 l 694 0 l 556 0 l 556 694 l 278 694 l 278 139 l 417 139 l 417 0 l 0 0 l 0 139 l 139 139 l 139 694 l 0 694 l 0 833 z "},"n":{"ha":1111,"x_min":0,"x_max":972,"o":"m 0 833 l 694 833 l 694 694 l 833 694 l 833 139 l 972 139 l 972 0 l 556 0 l 556 139 l 694 139 l 694 694 l 278 694 l 278 139 l 417 139 l 417 0 l 0 0 l 0 139 l 139 139 l 139 694 l 0 694 l 0 833 z "},"o":{"ha":833,"x_min":0,"x_max":694,"o":"m 0 694 l 139 694 l 139 833 l 556 833 l 556 694 l 694 694 l 694 139 l 556 139 l 556 0 l 139 0 l 139 139 l 0 139 l 0 694 m 139 139 l 556 139 l 556 694 l 139 694 l 139 139 z "},"p":{"ha":972,"x_min":0,"x_max":833,"o":"m 0 833 l 694 833 l 694 694 l 833 694 l 833 139 l 694 139 l 694 0 l 278 0 l 278 -139 l 417 -139 l 417 -278 l 0 -278 l 0 -139 l 139 -139 l 139 694 l 0 694 l 0 833 m 278 139 l 694 139 l 694 694 l 278 694 l 278 139 z "},"q":{"ha":972,"x_min":0,"x_max":833,"o":"m 0 694 l 139 694 l 139 833 l 833 833 l 833 694 l 694 694 l 694 -139 l 833 -139 l 833 -278 l 417 -278 l 417 -139 l 556 -139 l 556 0 l 139 0 l 139 139 l 0 139 l 0 694 m 139 139 l 556 139 l 556 694 l 139 694 l 139 139 z "},"r":{"ha":972,"x_min":0,"x_max":833,"o":"m 0 833 l 278 833 l 278 694 l 417 694 l 417 833 l 694 833 l 694 694 l 833 694 l 833 556 l 694 556 l 694 694 l 417 694 l 417 556 l 278 556 l 278 139 l 417 139 l 417 0 l 0 0 l 0 139 l 139 139 l 139 694 l 0 694 l 0 833 z "},"s":{"ha":833,"x_min":0,"x_max":694,"o":"m 0 694 l 139 694 l 139 833 l 694 833 l 694 694 l 139 694 l 139 556 l 556 556 l 556 417 l 694 417 l 694 139 l 556 139 l 556 0 l 0 0 l 0 139 l 556 139 l 556 417 l 139 417 l 139 556 l 0 556 l 0 694 z "},"t":{"ha":833,"x_min":0,"x_max":694,"o":"m 0 833 l 139 833 l 139 1111 l 278 1111 l 278 833 l 556 833 l 556 694 l 278 694 l 278 139 l 694 139 l 694 0 l 278 0 l 278 139 l 139 139 l 139 694 l 0 694 l 0 833 z "},"u":{"ha":1111,"x_min":0,"x_max":972,"o":"m 0 833 l 417 833 l 417 694 l 278 694 l 278 139 l 694 139 l 694 694 l 556 694 l 556 833 l 972 833 l 972 694 l 833 694 l 833 139 l 694 139 l 694 0 l 278 0 l 278 139 l 139 139 l 139 694 l 0 694 l 0 833 z "},"v":{"ha":1111,"x_min":0,"x_max":972,"o":"m 0 833 l 417 833 l 417 694 l 278 694 l 278 278 l 417 278 l 417 139 l 556 139 l 556 278 l 694 278 l 694 694 l 556 694 l 556 833 l 972 833 l 972 694 l 833 694 l 833 278 l 694 278 l 694 139 l 556 139 l 556 0 l 417 0 l 417 139 l 278 139 l 278 278 l 139 278 l 139 694 l 0 694 l 0 833 z "},"w":{"ha":1389,"x_min":0,"x_max":1250,"o":"m 0 833 l 417 833 l 417 694 l 278 694 l 278 139 l 556 139 l 556 556 l 694 556 l 694 139 l 972 139 l 972 694 l 833 694 l 833 833 l 1250 833 l 1250 694 l 1111 694 l 1111 139 l 972 139 l 972 0 l 694 0 l 694 139 l 556 139 l 556 0 l 278 0 l 278 139 l 139 139 l 139 694 l 0 694 l 0 833 z "},"x":{"ha":1111,"x_min":0,"x_max":972,"o":"m 0 833 l 417 833 l 417 694 l 278 694 l 278 556 l 694 556 l 694 694 l 556 694 l 556 833 l 972 833 l 972 694 l 833 694 l 833 556 l 694 556 l 694 417 l 833 417 l 833 139 l 972 139 l 972 0 l 556 0 l 556 139 l 694 139 l 694 417 l 278 417 l 278 139 l 417 139 l 417 0 l 0 0 l 0 139 l 139 139 l 139 417 l 278 417 l 278 556 l 139 556 l 139 694 l 0 694 l 0 833 z "},"y":{"ha":1111,"x_min":0,"x_max":972,"o":"m 0 833 l 417 833 l 417 694 l 278 694 l 278 139 l 694 139 l 694 694 l 556 694 l 556 833 l 972 833 l 972 694 l 833 694 l 833 -139 l 694 -139 l 694 -278 l 278 -278 l 278 -139 l 694 -139 l 694 0 l 278 0 l 278 139 l 139 139 l 139 694 l 0 694 l 0 833 z "},"z":{"ha":972,"x_min":0,"x_max":833,"o":"m 0 833 l 833 833 l 833 694 l 694 694 l 694 556 l 556 556 l 556 417 l 417 417 l 417 278 l 278 278 l 278 139 l 694 139 l 694 278 l 833 278 l 833 0 l 0 0 l 0 139 l 139 139 l 139 278 l 278 278 l 278 417 l 417 417 l 417 556 l 556 556 l 556 694 l 139 694 l 139 556 l 0 556 l 0 833 z "},"{":{"ha":694,"x_min":0,"x_max":556,"o":"m 0 694 l 139 694 l 139 1111 l 556 1111 l 556 972 l 278 972 l 278 139 l 556 139 l 556 0 l 139 0 l 139 556 l 0 556 l 0 694 z "},"|":{"ha":278,"x_min":0,"x_max":139,"o":"m 0 1111 l 139 1111 l 139 0 l 0 0 l 0 1111 z "},"}":{"ha":694,"x_min":0,"x_max":556,"o":"m 0 1111 l 417 1111 l 417 694 l 556 694 l 556 556 l 417 556 l 417 0 l 0 0 l 0 139 l 278 139 l 278 972 l 0 972 l 0 1111 z "},"~":{"ha":833,"x_min":0,"x_max":694,"o":"m 0 556 l 139 556 l 139 694 l 278 694 l 278 556 l 417 556 l 417 417 l 556 417 l 556 694 l 694 694 l 694 417 l 556 417 l 556 278 l 417 278 l 417 417 l 278 417 l 278 556 l 139 556 l 139 278 l 0 278 l 0 556 z "},"€":{"ha":833,"x_min":0,"x_max":694,"o":"m 0 694 l 139 694 l 139 833 l 278 833 l 278 972 l 694 972 l 694 833 l 278 833 l 278 694 l 556 694 l 556 556 l 278 556 l 278 417 l 556 417 l 556 278 l 278 278 l 278 139 l 694 139 l 694 0 l 278 0 l 278 139 l 139 139 l 139 278 l 0 278 l 0 417 l 139 417 l 139 556 l 0 556 l 0 694 z "},"‚":{"ha":417,"x_min":0,"x_max":278,"o":"m 0 278 l 278 278 l 278 -139 l 139 -139 l 139 -278 l 0 -278 l 0 -139 l 139 -139 l 139 139 l 0 139 l 0 278 z "},"ƒ":{"ha":833,"x_min":0,"x_max":694,"o":"m 0 833 l 139 833 l 139 972 l 278 972 l 278 1111 l 694 1111 l 694 972 l 278 972 l 278 833 l 556 833 l 556 694 l 278 694 l 278 -139 l 139 -139 l 139 -278 l 0 -278 l 0 -139 l 139 -139 l 139 694 l 0 694 l 0 833 z "},"„":{"ha":833,"x_min":0,"x_max":694,"o":"m 0 278 l 278 278 l 278 -139 l 139 -139 l 139 -278 l 0 -278 l 0 -139 l 139 -139 l 139 139 l 0 139 l 0 278 m 417 278 l 694 278 l 694 -139 l 556 -139 l 556 -278 l 417 -278 l 417 -139 l 556 -139 l 556 139 l 417 139 l 417 278 z "},"…":{"ha":833,"x_min":0,"x_max":694,"o":"m 0 139 l 139 139 l 139 0 l 0 0 l 0 139 m 556 139 l 694 139 l 694 0 l 556 0 l 556 139 m 278 139 l 417 139 l 417 0 l 278 0 l 278 139 z "},"†":{"ha":833,"x_min":0,"x_max":694,"o":"m 0 833 l 278 833 l 278 1111 l 417 1111 l 417 833 l 694 833 l 694 694 l 417 694 l 417 0 l 278 0 l 278 694 l 0 694 l 0 833 z "},"‡":{"ha":833,"x_min":0,"x_max":694,"o":"m 0 833 l 278 833 l 278 1111 l 417 1111 l 417 833 l 694 833 l 694 694 l 417 694 l 417 417 l 694 417 l 694 278 l 417 278 l 417 0 l 278 0 l 278 278 l 0 278 l 0 417 l 278 417 l 278 694 l 0 694 l 0 833 z "},"ˆ":{"ha":556,"x_min":0,"x_max":417,"o":"m 0 972 l 139 972 l 139 1111 l 278 1111 l 278 972 l 417 972 l 417 833 l 278 833 l 278 972 l 139 972 l 139 833 l 0 833 l 0 972 z "},"‰":{"ha":1111,"x_min":0,"x_max":972,"o":"m 0 139 l 139 139 l 139 278 l 278 278 l 278 417 l 417 417 l 417 556 l 556 556 l 556 694 l 694 694 l 694 833 l 833 833 l 833 694 l 694 694 l 694 556 l 556 556 l 556 417 l 417 417 l 417 278 l 278 278 l 278 139 l 139 139 l 139 0 l 0 0 l 0 139 m 556 278 l 694 278 l 694 0 l 556 0 l 556 278 m 833 278 l 972 278 l 972 0 l 833 0 l 833 278 m 0 833 l 139 833 l 139 556 l 0 556 l 0 833 z "},"Š":{"ha":833,"x_min":0,"x_max":694,"o":"m 0 972 l 139 972 l 139 1111 l 694 1111 l 694 833 l 556 833 l 556 972 l 139 972 l 139 694 l 556 694 l 556 556 l 694 556 l 694 139 l 556 139 l 556 0 l 0 0 l 0 278 l 139 278 l 139 139 l 556 139 l 556 556 l 139 556 l 139 694 l 0 694 l 0 972 m 139 1528 l 278 1528 l 278 1389 l 417 1389 l 417 1528 l 556 1528 l 556 1389 l 417 1389 l 417 1250 l 278 1250 l 278 1389 l 139 1389 l 139 1528 z "},"‹":{"ha":556,"x_min":0,"x_max":417,"o":"m 0 556 l 139 556 l 139 694 l 278 694 l 278 833 l 417 833 l 417 694 l 278 694 l 278 556 l 139 556 l 139 417 l 278 417 l 278 278 l 417 278 l 417 139 l 278 139 l 278 278 l 139 278 l 139 417 l 0 417 l 0 556 z "},"Œ":{"ha":1111,"x_min":0,"x_max":972,"o":"m 0 972 l 139 972 l 139 1111 l 972 1111 l 972 833 l 833 833 l 833 972 l 556 972 l 556 694 l 833 694 l 833 556 l 556 556 l 556 139 l 833 139 l 833 278 l 972 278 l 972 0 l 139 0 l 139 139 l 0 139 l 0 972 m 139 139 l 417 139 l 417 972 l 139 972 l 139 139 z "},"Ž":{"ha":972,"x_min":0,"x_max":833,"o":"m 0 1111 l 833 1111 l 833 833 l 694 833 l 694 694 l 556 694 l 556 556 l 417 556 l 417 417 l 278 417 l 278 278 l 139 278 l 139 139 l 694 139 l 694 278 l 833 278 l 833 0 l 0 0 l 0 278 l 139 278 l 139 417 l 278 417 l 278 556 l 417 556 l 417 694 l 556 694 l 556 833 l 694 833 l 694 972 l 139 972 l 139 833 l 0 833 l 0 1111 m 278 1528 l 417 1528 l 417 1389 l 556 1389 l 556 1528 l 694 1528 l 694 1389 l 556 1389 l 556 1250 l 417 1250 l 417 1389 l 278 1389 l 278 1528 z "},"‘":{"ha":417,"x_min":0,"x_max":278,"o":"m 0 1389 l 139 1389 l 139 1528 l 278 1528 l 278 1389 l 139 1389 l 139 1111 l 278 1111 l 278 972 l 0 972 l 0 1389 z "},"’":{"ha":417,"x_min":0,"x_max":278,"o":"m 0 1111 l 278 1111 l 278 694 l 139 694 l 139 556 l 0 556 l 0 694 l 139 694 l 139 972 l 0 972 l 0 1111 z "},"“":{"ha":833,"x_min":0,"x_max":694,"o":"m 0 1389 l 139 1389 l 139 1528 l 278 1528 l 278 1389 l 139 1389 l 139 1111 l 278 1111 l 278 972 l 0 972 l 0 1389 m 417 1389 l 556 1389 l 556 1528 l 694 1528 l 694 1389 l 556 1389 l 556 1111 l 694 1111 l 694 972 l 417 972 l 417 1389 z "},"”":{"ha":833,"x_min":0,"x_max":694,"o":"m 0 1111 l 278 1111 l 278 694 l 139 694 l 139 556 l 0 556 l 0 694 l 139 694 l 139 972 l 0 972 l 0 1111 m 417 1111 l 694 1111 l 694 694 l 556 694 l 556 556 l 417 556 l 417 694 l 556 694 l 556 972 l 417 972 l 417 1111 z "},"•":{"ha":417,"x_min":0,"x_max":278,"o":"m 0 694 l 278 694 l 278 417 l 0 417 l 0 694 z "},"–":{"ha":833,"x_min":0,"x_max":694,"o":"m 0 556 l 694 556 l 694 417 l 0 417 l 0 556 z "},"—":{"ha":972,"x_min":0,"x_max":833,"o":"m 0 556 l 833 556 l 833 417 l 0 417 l 0 556 z "},"˜":{"ha":833,"x_min":0,"x_max":694,"o":"m 0 972 l 139 972 l 139 1111 l 278 1111 l 278 972 l 417 972 l 417 833 l 556 833 l 556 1111 l 694 1111 l 694 833 l 556 833 l 556 694 l 417 694 l 417 833 l 278 833 l 278 972 l 139 972 l 139 694 l 0 694 l 0 972 z "},"™":{"ha":1250,"x_min":0,"x_max":1111,"o":"m 0 972 l 556 972 l 556 833 l 694 833 l 694 694 l 833 694 l 833 833 l 972 833 l 972 972 l 1111 972 l 1111 417 l 972 417 l 972 694 l 833 694 l 833 556 l 694 556 l 694 694 l 556 694 l 556 417 l 417 417 l 417 833 l 278 833 l 278 417 l 139 417 l 139 833 l 0 833 l 0 972 z "},"š":{"ha":833,"x_min":0,"x_max":694,"o":"m 0 694 l 139 694 l 139 833 l 694 833 l 694 694 l 139 694 l 139 556 l 556 556 l 556 417 l 694 417 l 694 139 l 556 139 l 556 0 l 0 0 l 0 139 l 556 139 l 556 417 l 139 417 l 139 556 l 0 556 l 0 694 m 139 1250 l 278 1250 l 278 1111 l 417 1111 l 417 1250 l 556 1250 l 556 1111 l 417 1111 l 417 972 l 278 972 l 278 1111 l 139 1111 l 139 1250 z "},"›":{"ha":556,"x_min":0,"x_max":417,"o":"m 0 833 l 139 833 l 139 694 l 278 694 l 278 556 l 417 556 l 417 417 l 278 417 l 278 278 l 139 278 l 139 139 l 0 139 l 0 278 l 139 278 l 139 417 l 278 417 l 278 556 l 139 556 l 139 694 l 0 694 l 0 833 z "},"œ":{"ha":1111,"x_min":0,"x_max":972,"o":"m 0 694 l 139 694 l 139 833 l 417 833 l 417 694 l 556 694 l 556 833 l 833 833 l 833 694 l 972 694 l 972 278 l 556 278 l 556 139 l 972 139 l 972 0 l 556 0 l 556 139 l 417 139 l 417 0 l 139 0 l 139 139 l 0 139 l 0 694 m 139 139 l 417 139 l 417 694 l 139 694 l 139 139 m 556 417 l 833 417 l 833 694 l 556 694 l 556 417 z "},"ž":{"ha":972,"x_min":0,"x_max":833,"o":"m 0 833 l 833 833 l 833 694 l 694 694 l 694 556 l 556 556 l 556 417 l 417 417 l 417 278 l 278 278 l 278 139 l 694 139 l 694 278 l 833 278 l 833 0 l 0 0 l 0 139 l 139 139 l 139 278 l 278 278 l 278 417 l 417 417 l 417 556 l 556 556 l 556 694 l 139 694 l 139 556 l 0 556 l 0 833 m 278 1250 l 417 1250 l 417 1111 l 556 1111 l 556 1250 l 694 1250 l 694 1111 l 556 1111 l 556 972 l 417 972 l 417 1111 l 278 1111 l 278 1250 z "},"Ÿ":{"ha":1111,"x_min":0,"x_max":972,"o":"m 0 1111 l 417 1111 l 417 972 l 278 972 l 278 833 l 417 833 l 417 694 l 556 694 l 556 833 l 694 833 l 694 972 l 556 972 l 556 1111 l 972 1111 l 972 972 l 833 972 l 833 833 l 694 833 l 694 694 l 556 694 l 556 139 l 694 139 l 694 0 l 278 0 l 278 139 l 417 139 l 417 694 l 278 694 l 278 833 l 139 833 l 139 972 l 0 972 l 0 1111 m 278 1389 l 417 1389 l 417 1250 l 278 1250 l 278 1389 m 556 1389 l 694 1389 l 694 1250 l 556 1250 l 556 1389 z "},"¡":{"ha":278,"x_min":0,"x_max":139,"o":"m 0 833 l 139 833 l 139 0 l 0 0 l 0 833 m 0 1111 l 139 1111 l 139 972 l 0 972 l 0 1111 z "},"¢":{"ha":833,"x_min":0,"x_max":694,"o":"m 0 694 l 139 694 l 139 833 l 278 833 l 278 972 l 417 972 l 417 833 l 694 833 l 694 556 l 556 556 l 556 694 l 417 694 l 417 139 l 556 139 l 556 278 l 694 278 l 694 0 l 417 0 l 417 -139 l 278 -139 l 278 0 l 139 0 l 139 139 l 0 139 l 0 694 m 278 694 l 139 694 l 139 139 l 278 139 l 278 694 z "},"£":{"ha":833,"x_min":0,"x_max":694,"o":"m 0 833 l 139 833 l 139 972 l 278 972 l 278 1111 l 694 1111 l 694 972 l 278 972 l 278 833 l 556 833 l 556 694 l 278 694 l 278 139 l 556 139 l 556 0 l 0 0 l 0 139 l 139 139 l 139 694 l 0 694 l 0 833 z "},"¤":{"ha":972,"x_min":0,"x_max":833,"o":"m 139 694 l 278 694 l 278 833 l 556 833 l 556 694 l 694 694 l 694 417 l 556 417 l 556 278 l 278 278 l 278 417 l 139 417 l 139 694 m 278 417 l 556 417 l 556 694 l 278 694 l 278 417 m 694 972 l 833 972 l 833 833 l 694 833 l 694 972 m 0 972 l 139 972 l 139 833 l 0 833 l 0 972 m 0 278 l 139 278 l 139 139 l 0 139 l 0 278 m 694 278 l 833 278 l 833 139 l 694 139 l 694 278 z "},"¥":{"ha":1111,"x_min":0,"x_max":972,"o":"m 0 1111 l 417 1111 l 417 972 l 278 972 l 278 833 l 417 833 l 417 694 l 556 694 l 556 833 l 694 833 l 694 972 l 556 972 l 556 1111 l 972 1111 l 972 972 l 833 972 l 833 833 l 694 833 l 694 694 l 556 694 l 556 556 l 833 556 l 833 417 l 556 417 l 556 278 l 833 278 l 833 139 l 556 139 l 556 0 l 417 0 l 417 139 l 139 139 l 139 278 l 417 278 l 417 417 l 139 417 l 139 556 l 417 556 l 417 694 l 278 694 l 278 833 l 139 833 l 139 972 l 0 972 l 0 1111 z "},"¦":{"ha":278,"x_min":0,"x_max":139,"o":"m 0 1111 l 139 1111 l 139 694 l 0 694 l 0 1111 m 0 417 l 139 417 l 139 0 l 0 0 l 0 417 z "},"§":{"ha":833,"x_min":0,"x_max":694,"o":"m 0 972 l 139 972 l 139 1111 l 694 1111 l 694 972 l 139 972 l 139 833 l 556 833 l 556 694 l 694 694 l 694 139 l 556 139 l 556 0 l 0 0 l 0 139 l 556 139 l 556 278 l 139 278 l 139 417 l 0 417 l 0 972 m 139 417 l 556 417 l 556 694 l 139 694 l 139 417 z "},"¨":{"ha":556,"x_min":0,"x_max":417,"o":"m 0 1111 l 139 1111 l 139 972 l 0 972 l 0 1111 m 278 1111 l 417 1111 l 417 972 l 278 972 l 278 1111 z "},"©":{"ha":1111,"x_min":0,"x_max":972,"o":"m 0 972 l 139 972 l 139 1111 l 833 1111 l 833 972 l 972 972 l 972 139 l 833 139 l 833 0 l 139 0 l 139 139 l 0 139 l 0 972 m 139 139 l 833 139 l 833 972 l 139 972 l 139 139 m 278 833 l 694 833 l 694 694 l 417 694 l 417 417 l 694 417 l 694 278 l 278 278 l 278 833 z "},"ª":{"ha":694,"x_min":0,"x_max":556,"o":"m 139 1111 l 417 1111 l 417 972 l 556 972 l 556 417 l 139 417 l 139 556 l 0 556 l 0 694 l 139 694 l 139 833 l 417 833 l 417 972 l 139 972 l 139 1111 m 139 556 l 417 556 l 417 694 l 139 694 l 139 556 z "},"«":{"ha":972,"x_min":0,"x_max":833,"o":"m 0 556 l 139 556 l 139 694 l 278 694 l 278 833 l 417 833 l 417 694 l 278 694 l 278 556 l 139 556 l 139 417 l 278 417 l 278 278 l 417 278 l 417 139 l 278 139 l 278 278 l 139 278 l 139 417 l 0 417 l 0 556 m 417 556 l 556 556 l 556 694 l 694 694 l 694 833 l 833 833 l 833 694 l 694 694 l 694 556 l 556 556 l 556 417 l 694 417 l 694 278 l 833 278 l 833 139 l 694 139 l 694 278 l 556 278 l 556 417 l 417 417 l 417 556 z "},"¬":{"ha":833,"x_min":0,"x_max":694,"o":"m 0 1111 l 694 1111 l 694 694 l 556 694 l 556 972 l 0 972 l 0 1111 z "},"­":{"ha":694,"x_min":0,"x_max":556,"o":"m 0 556 l 556 556 l 556 417 l 0 417 l 0 556 z "},"®":{"ha":1111,"x_min":0,"x_max":972,"o":"m 0 972 l 139 972 l 139 1111 l 833 1111 l 833 972 l 972 972 l 972 139 l 833 139 l 833 0 l 139 0 l 139 139 l 0 139 l 0 972 m 139 139 l 833 139 l 833 972 l 139 972 l 139 139 m 278 833 l 556 833 l 556 694 l 694 694 l 694 556 l 556 556 l 556 417 l 694 417 l 694 278 l 556 278 l 556 417 l 417 417 l 417 278 l 278 278 l 278 833 m 417 556 l 556 556 l 556 694 l 417 694 l 417 556 z "},"°":{"ha":694,"x_min":0,"x_max":556,"o":"m 0 972 l 139 972 l 139 1111 l 417 1111 l 417 972 l 556 972 l 556 694 l 417 694 l 417 556 l 139 556 l 139 694 l 0 694 l 0 972 m 139 694 l 417 694 l 417 972 l 139 972 l 139 694 z "},"±":{"ha":833,"x_min":0,"x_max":694,"o":"m 0 694 l 278 694 l 278 972 l 417 972 l 417 694 l 694 694 l 694 556 l 417 556 l 417 278 l 278 278 l 278 556 l 0 556 l 0 694 m 0 139 l 694 139 l 694 0 l 0 0 l 0 139 z "},"²":{"ha":693,"x_min":0,"x_max":556,"o":"m 0 972 l 417 972 l 417 833 l 556 833 l 556 694 l 417 694 l 417 556 l 139 556 l 139 417 l 556 417 l 556 278 l 0 278 l 0 556 l 139 556 l 139 694 l 417 694 l 417 833 l 0 833 l 0 972 z "},"³":{"ha":694,"x_min":0,"x_max":556,"o":"m 139 694 l 417 694 l 417 833 l 0 833 l 0 972 l 417 972 l 417 833 l 556 833 l 556 694 l 417 694 l 417 556 l 556 556 l 556 417 l 417 417 l 417 278 l 0 278 l 0 417 l 417 417 l 417 556 l 139 556 l 139 694 z "},"´":{"ha":417,"x_min":0,"x_max":278,"o":"m 0 972 l 139 972 l 139 1111 l 278 1111 l 278 972 l 139 972 l 139 833 l 0 833 l 0 972 z "},"µ":{"ha":833,"x_min":0,"x_max":694,"o":"m 0 833 l 139 833 l 139 278 l 278 278 l 278 139 l 417 139 l 417 278 l 556 278 l 556 833 l 694 833 l 694 0 l 556 0 l 556 139 l 417 139 l 417 0 l 278 0 l 278 139 l 139 139 l 139 -278 l 0 -278 l 0 833 z "},"¶":{"ha":833,"x_min":0,"x_max":694,"o":"m 0 1111 l 694 1111 l 694 972 l 556 972 l 556 0 l 417 0 l 417 972 l 278 972 l 278 0 l 139 0 l 139 694 l 0 694 l 0 1111 z "},"·":{"ha":278,"x_min":0,"x_max":139,"o":"m 0 556 l 139 556 l 139 417 l 0 417 l 0 556 z "},"¸":{"ha":556,"x_min":0,"x_max":417,"o":"m 0 -139 l 278 -139 l 278 0 l 417 0 l 417 -139 l 278 -139 l 278 -278 l 0 -278 l 0 -139 z "},"¹":{"ha":556,"x_min":0,"x_max":417,"o":"m 0 833 l 139 833 l 139 972 l 278 972 l 278 417 l 417 417 l 417 278 l 0 278 l 0 417 l 139 417 l 139 694 l 0 694 l 0 833 z "},"º":{"ha":694,"x_min":0,"x_max":556,"o":"m 0 833 l 139 833 l 139 972 l 417 972 l 417 833 l 556 833 l 556 417 l 417 417 l 417 278 l 139 278 l 139 417 l 0 417 l 0 833 m 139 417 l 417 417 l 417 833 l 139 833 l 139 417 z "},"»":{"ha":972,"x_min":0,"x_max":833,"o":"m 0 833 l 139 833 l 139 694 l 278 694 l 278 556 l 417 556 l 417 417 l 278 417 l 278 278 l 139 278 l 139 139 l 0 139 l 0 278 l 139 278 l 139 417 l 278 417 l 278 556 l 139 556 l 139 694 l 0 694 l 0 833 m 417 833 l 556 833 l 556 694 l 694 694 l 694 556 l 833 556 l 833 417 l 694 417 l 694 278 l 556 278 l 556 139 l 417 139 l 417 278 l 556 278 l 556 417 l 694 417 l 694 556 l 556 556 l 556 694 l 417 694 l 417 833 z "},"¼":{"ha":1667,"x_min":0,"x_max":1528,"o":"m 972 417 l 1111 417 l 1111 139 l 1389 139 l 1389 417 l 1528 417 l 1528 -278 l 1389 -278 l 1389 0 l 972 0 l 972 417 m 0 1111 l 139 1111 l 139 1250 l 278 1250 l 278 694 l 417 694 l 417 556 l 0 556 l 0 694 l 139 694 l 139 972 l 0 972 l 0 1111 m 278 139 l 417 139 l 417 278 l 556 278 l 556 417 l 694 417 l 694 556 l 833 556 l 833 694 l 972 694 l 972 833 l 1111 833 l 1111 694 l 972 694 l 972 556 l 833 556 l 833 417 l 694 417 l 694 278 l 556 278 l 556 139 l 417 139 l 417 0 l 278 0 l 278 139 z "},"½":{"ha":1667,"x_min":0,"x_max":1528,"o":"m 972 0 l 1111 0 l 1111 139 l 1389 139 l 1389 278 l 972 278 l 972 417 l 1389 417 l 1389 278 l 1528 278 l 1528 0 l 1111 0 l 1111 -139 l 1528 -139 l 1528 -278 l 972 -278 l 972 0 m 0 1111 l 139 1111 l 139 1250 l 278 1250 l 278 694 l 417 694 l 417 556 l 0 556 l 0 694 l 139 694 l 139 972 l 0 972 l 0 1111 m 278 139 l 417 139 l 417 278 l 556 278 l 556 417 l 694 417 l 694 556 l 833 556 l 833 694 l 972 694 l 972 833 l 1111 833 l 1111 694 l 972 694 l 972 556 l 833 556 l 833 417 l 694 417 l 694 278 l 556 278 l 556 139 l 417 139 l 417 0 l 278 0 l 278 139 z "},"¾":{"ha":1667,"x_min":0,"x_max":1528,"o":"m 139 972 l 417 972 l 417 1111 l 0 1111 l 0 1250 l 417 1250 l 417 1111 l 556 1111 l 556 972 l 417 972 l 417 833 l 556 833 l 556 694 l 417 694 l 417 556 l 0 556 l 0 694 l 417 694 l 417 833 l 139 833 l 139 972 m 972 417 l 1111 417 l 1111 139 l 1389 139 l 1389 417 l 1528 417 l 1528 -278 l 1389 -278 l 1389 0 l 972 0 l 972 417 m 278 139 l 417 139 l 417 278 l 556 278 l 556 417 l 694 417 l 694 556 l 833 556 l 833 694 l 972 694 l 972 833 l 1111 833 l 1111 694 l 972 694 l 972 556 l 833 556 l 833 417 l 694 417 l 694 278 l 556 278 l 556 139 l 417 139 l 417 0 l 278 0 l 278 139 z "},"¿":{"ha":833,"x_min":0,"x_max":694,"o":"m 0 417 l 139 417 l 139 556 l 278 556 l 278 833 l 417 833 l 417 556 l 278 556 l 278 417 l 139 417 l 139 139 l 556 139 l 556 278 l 694 278 l 694 0 l 139 0 l 139 139 l 0 139 l 0 417 m 278 1111 l 417 1111 l 417 972 l 278 972 l 278 1111 z "},"À":{"ha":1111,"x_min":0,"x_max":972,"o":"m 0 139 l 139 139 l 139 972 l 278 972 l 278 1111 l 694 1111 l 694 972 l 833 972 l 833 139 l 972 139 l 972 0 l 556 0 l 556 139 l 694 139 l 694 417 l 278 417 l 278 139 l 417 139 l 417 0 l 0 0 l 0 139 m 278 556 l 694 556 l 694 972 l 278 972 l 278 556 m 278 1528 l 417 1528 l 417 1389 l 556 1389 l 556 1250 l 417 1250 l 417 1389 l 278 1389 l 278 1528 z "},"Á":{"ha":1111,"x_min":0,"x_max":972,"o":"m 0 139 l 139 139 l 139 972 l 278 972 l 278 1111 l 694 1111 l 694 972 l 833 972 l 833 139 l 972 139 l 972 0 l 556 0 l 556 139 l 694 139 l 694 417 l 278 417 l 278 139 l 417 139 l 417 0 l 0 0 l 0 139 m 278 556 l 694 556 l 694 972 l 278 972 l 278 556 m 417 1389 l 556 1389 l 556 1528 l 694 1528 l 694 1389 l 556 1389 l 556 1250 l 417 1250 l 417 1389 z "},"Â":{"ha":1111,"x_min":0,"x_max":972,"o":"m 0 139 l 139 139 l 139 972 l 278 972 l 278 1111 l 694 1111 l 694 972 l 833 972 l 833 139 l 972 139 l 972 0 l 556 0 l 556 139 l 694 139 l 694 417 l 278 417 l 278 139 l 417 139 l 417 0 l 0 0 l 0 139 m 694 972 l 278 972 l 278 556 l 694 556 l 694 972 m 278 1389 l 417 1389 l 417 1528 l 556 1528 l 556 1389 l 694 1389 l 694 1250 l 556 1250 l 556 1389 l 417 1389 l 417 1250 l 278 1250 l 278 1389 z "},"Ã":{"ha":1111,"x_min":0,"x_max":972,"o":"m 0 139 l 139 139 l 139 972 l 278 972 l 278 1111 l 694 1111 l 694 972 l 833 972 l 833 139 l 972 139 l 972 0 l 556 0 l 556 139 l 694 139 l 694 417 l 278 417 l 278 139 l 417 139 l 417 0 l 0 0 l 0 139 m 278 556 l 694 556 l 694 972 l 278 972 l 278 556 m 278 1389 l 417 1389 l 417 1528 l 556 1528 l 556 1389 l 694 1389 l 694 1528 l 833 1528 l 833 1389 l 694 1389 l 694 1250 l 556 1250 l 556 1389 l 417 1389 l 417 1250 l 278 1250 l 278 1389 z "},"Ä":{"ha":1111,"x_min":0,"x_max":972,"o":"m 0 139 l 139 139 l 139 972 l 278 972 l 278 1111 l 694 1111 l 694 972 l 833 972 l 833 139 l 972 139 l 972 0 l 556 0 l 556 139 l 694 139 l 694 417 l 278 417 l 278 139 l 417 139 l 417 0 l 0 0 l 0 139 m 278 972 l 278 556 l 694 556 l 694 971 l 278 972 m 556 1389 l 694 1389 l 694 1250 l 556 1250 l 556 1389 m 278 1389 l 417 1389 l 417 1250 l 278 1250 l 278 1389 z "},"Å":{"ha":1111,"x_min":0,"x_max":972,"o":"m 278 1389 l 417 1389 l 417 1528 l 556 1528 l 556 1389 l 694 1389 l 694 1250 l 556 1250 l 556 1111 l 694 1111 l 694 972 l 833 972 l 833 139 l 972 139 l 972 0 l 556 0 l 556 139 l 694 139 l 694 417 l 278 417 l 278 139 l 417 139 l 417 0 l 0 0 l 0 139 l 139 139 l 139 972 l 278 972 l 278 1111 l 417 1111 l 417 1250 l 278 1250 l 278 1389 m 694 972 l 278 972 l 278 556 l 694 556 l 694 972 m 417 1250 l 556 1250 l 556 1389 l 417 1389 l 417 1250 z "},"Æ":{"ha":1250,"x_min":0,"x_max":1111,"o":"m 0 139 l 139 139 l 139 972 l 278 972 l 278 1111 l 1111 1111 l 1111 833 l 972 833 l 972 972 l 694 972 l 694 694 l 972 694 l 972 556 l 694 556 l 694 139 l 972 139 l 972 278 l 1111 278 l 1111 0 l 556 0 l 556 556 l 278 556 l 278 139 l 417 139 l 417 0 l 0 0 l 0 139 m 556 972 l 278 972 l 278 694 l 556 694 l 556 972 z "},"Ç":{"ha":833,"x_min":0,"x_max":694,"o":"m 0 972 l 139 972 l 139 1111 l 694 1111 l 694 833 l 556 833 l 556 972 l 139 972 l 139 139 l 556 139 l 556 278 l 694 278 l 694 0 l 417 0 l 417 -139 l 278 -139 l 278 -278 l 0 -278 l 0 -139 l 278 -139 l 278 0 l 139 0 l 139 139 l 0 139 l 0 972 z "},"È":{"ha":972,"x_min":0,"x_max":833,"o":"m 0 1111 l 833 1111 l 833 833 l 694 833 l 694 972 l 278 972 l 278 694 l 556 694 l 556 556 l 278 556 l 278 139 l 694 139 l 694 278 l 833 278 l 833 0 l 0 0 l 0 139 l 139 139 l 139 972 l 0 972 l 0 1111 m 278 1528 l 417 1528 l 417 1389 l 556 1389 l 556 1250 l 417 1250 l 417 1389 l 278 1389 l 278 1528 z "},"É":{"ha":972,"x_min":0,"x_max":833,"o":"m 0 1111 l 833 1111 l 833 833 l 694 833 l 694 972 l 278 972 l 278 694 l 556 694 l 556 556 l 278 556 l 278 139 l 694 139 l 694 278 l 833 278 l 833 0 l 0 0 l 0 139 l 139 139 l 139 972 l 0 972 l 0 1111 m 417 1389 l 556 1389 l 556 1528 l 694 1528 l 694 1389 l 556 1389 l 556 1250 l 417 1250 l 417 1389 z "},"Ê":{"ha":972,"x_min":0,"x_max":833,"o":"m 0 1111 l 833 1111 l 833 833 l 694 833 l 694 972 l 278 972 l 278 694 l 556 694 l 556 556 l 278 556 l 278 139 l 694 139 l 694 278 l 833 278 l 833 0 l 0 0 l 0 139 l 139 139 l 139 972 l 0 972 l 0 1111 m 278 1389 l 417 1389 l 417 1528 l 556 1528 l 556 1389 l 694 1389 l 694 1250 l 556 1250 l 556 1389 l 417 1389 l 417 1250 l 278 1250 l 278 1389 z "},"Ë":{"ha":972,"x_min":0,"x_max":833,"o":"m 0 1111 l 833 1111 l 833 833 l 694 833 l 694 972 l 278 972 l 278 694 l 556 694 l 556 556 l 278 556 l 278 139 l 694 139 l 694 278 l 833 278 l 833 0 l 0 0 l 0 139 l 139 139 l 139 972 l 0 972 l 0 1111 m 278 1389 l 417 1389 l 417 1250 l 278 1250 l 278 1389 m 556 1389 l 694 1389 l 694 1250 l 556 1250 l 556 1389 z "},"Ì":{"ha":833,"x_min":0,"x_max":694,"o":"m 0 139 l 278 139 l 278 972 l 0 972 l 0 1111 l 694 1111 l 694 972 l 417 972 l 417 139 l 694 139 l 694 0 l 0 0 l 0 139 m 139 1528 l 278 1528 l 278 1389 l 417 1389 l 417 1250 l 278 1250 l 278 1389 l 139 1389 l 139 1528 z "},"Í":{"ha":833,"x_min":0,"x_max":694,"o":"m 0 1111 l 694 1111 l 694 972 l 417 972 l 417 139 l 694 139 l 694 0 l 0 0 l 0 139 l 278 139 l 278 972 l 0 972 l 0 1111 m 278 1389 l 417 1389 l 417 1528 l 556 1528 l 556 1389 l 417 1389 l 417 1250 l 278 1250 l 278 1389 z "},"Î":{"ha":833,"x_min":0,"x_max":694,"o":"m 0 139 l 278 139 l 278 972 l 0 972 l 0 1111 l 694 1111 l 694 972 l 417 972 l 417 139 l 694 139 l 694 0 l 0 0 l 0 139 m 139 1389 l 278 1389 l 278 1528 l 417 1528 l 417 1389 l 556 1389 l 556 1250 l 417 1250 l 417 1389 l 278 1389 l 278 1250 l 139 1250 l 139 1389 z "},"Ï":{"ha":833,"x_min":0,"x_max":694,"o":"m 0 139 l 278 139 l 278 972 l 0 972 l 0 1111 l 694 1111 l 694 972 l 417 972 l 417 139 l 694 139 l 694 0 l 0 0 l 0 139 m 417 1389 l 556 1389 l 556 1250 l 417 1250 l 417 1389 m 139 1389 l 278 1389 l 278 1250 l 139 1250 l 139 1389 z "},"Ð":{"ha":972,"x_min":0,"x_max":833,"o":"m 0 1111 l 694 1111 l 694 972 l 833 972 l 833 139 l 694 139 l 694 0 l 0 0 l 0 139 l 139 139 l 139 556 l 0 556 l 0 694 l 139 694 l 139 972 l 0 972 l 0 1111 m 278 694 l 556 694 l 556 556 l 278 556 l 278 139 l 694 139 l 694 972 l 278 972 l 278 694 z "},"Ñ":{"ha":1111,"x_min":0,"x_max":972,"o":"m 0 1111 l 417 1111 l 417 972 l 278 972 l 278 833 l 417 833 l 417 694 l 556 694 l 556 556 l 694 556 l 694 972 l 556 972 l 556 1111 l 972 1111 l 972 972 l 833 972 l 833 139 l 972 139 l 972 0 l 556 0 l 556 139 l 694 139 l 694 417 l 556 417 l 556 556 l 417 556 l 417 694 l 278 694 l 278 139 l 417 139 l 417 0 l 0 0 l 0 139 l 139 139 l 139 972 l 0 972 l 0 1111 m 278 1389 l 417 1389 l 417 1528 l 556 1528 l 556 1389 l 694 1389 l 694 1528 l 833 1528 l 833 1389 l 694 1389 l 694 1250 l 556 1250 l 556 1389 l 417 1389 l 417 1250 l 278 1250 l 278 1389 z "},"Ò":{"ha":833,"x_min":0,"x_max":694,"o":"m 0 972 l 139 972 l 139 1111 l 556 1111 l 556 972 l 694 972 l 694 139 l 556 139 l 556 0 l 139 0 l 139 139 l 0 139 l 0 972 m 139 139 l 556 139 l 556 972 l 139 972 l 139 139 m 139 1528 l 278 1528 l 278 1389 l 417 1389 l 417 1250 l 278 1250 l 278 1389 l 139 1389 l 139 1528 z "},"Ó":{"ha":833,"x_min":0,"x_max":694,"o":"m 0 972 l 139 972 l 139 1111 l 556 1111 l 556 972 l 694 972 l 694 139 l 556 139 l 556 0 l 139 0 l 139 139 l 0 139 l 0 972 m 139 139 l 556 139 l 556 972 l 139 972 l 139 139 m 278 1389 l 417 1389 l 417 1528 l 556 1528 l 556 1389 l 417 1389 l 417 1250 l 278 1250 l 278 1389 z "},"Ô":{"ha":833,"x_min":0,"x_max":694,"o":"m 0 972 l 139 972 l 139 1111 l 556 1111 l 556 972 l 694 972 l 694 139 l 556 139 l 556 0 l 139 0 l 139 139 l 0 139 l 0 972 m 139 139 l 556 139 l 556 972 l 139 972 l 139 139 m 139 1389 l 278 1389 l 278 1528 l 417 1528 l 417 1389 l 556 1389 l 556 1250 l 417 1250 l 417 1389 l 278 1389 l 278 1250 l 139 1250 l 139 1389 z "},"Õ":{"ha":833,"x_min":0,"x_max":694,"o":"m 0 972 l 139 972 l 139 1111 l 556 1111 l 556 972 l 694 972 l 694 139 l 556 139 l 556 0 l 139 0 l 139 139 l 0 139 l 0 972 m 139 139 l 556 139 l 556 972 l 139 972 l 139 139 m 139 1389 l 278 1389 l 278 1528 l 417 1528 l 417 1389 l 556 1389 l 556 1528 l 694 1528 l 694 1389 l 556 1389 l 556 1250 l 417 1250 l 417 1389 l 278 1389 l 278 1250 l 139 1250 l 139 1389 z "},"Ö":{"ha":833,"x_min":0,"x_max":694,"o":"m 0 972 l 139 972 l 139 1111 l 556 1111 l 556 972 l 694 972 l 694 139 l 556 139 l 556 0 l 139 0 l 139 139 l 0 139 l 0 972 m 139 139 l 556 139 l 556 972 l 139 972 l 139 139 m 417 1389 l 556 1389 l 556 1250 l 417 1250 l 417 1389 m 139 1389 l 278 1389 l 278 1250 l 139 1250 l 139 1389 z "},"×":{"ha":833,"x_min":0,"x_max":694,"o":"m 0 833 l 139 833 l 139 694 l 278 694 l 278 556 l 417 556 l 417 694 l 556 694 l 556 833 l 694 833 l 694 694 l 556 694 l 556 556 l 417 556 l 417 417 l 556 417 l 556 278 l 694 278 l 694 139 l 556 139 l 556 278 l 417 278 l 417 417 l 278 417 l 278 278 l 139 278 l 139 139 l 0 139 l 0 278 l 139 278 l 139 417 l 278 417 l 278 556 l 139 556 l 139 694 l 0 694 l 0 833 z "},"Ø":{"ha":833,"x_min":0,"x_max":694,"o":"m 0 972 l 139 972 l 139 1111 l 556 1111 l 556 972 l 694 972 l 694 139 l 556 139 l 556 0 l 139 0 l 139 139 l 0 139 l 0 972 m 139 417 l 278 417 l 278 556 l 417 556 l 417 694 l 556 694 l 556 972 l 139 972 l 139 417 m 556 556 l 417 556 l 417 417 l 278 417 l 278 278 l 139 278 l 139 139 l 556 139 l 556 556 z "},"Ù":{"ha":1111,"x_min":0,"x_max":972,"o":"m 0 1111 l 417 1111 l 417 972 l 278 972 l 278 139 l 694 139 l 694 972 l 556 972 l 556 1111 l 972 1111 l 972 972 l 833 972 l 833 139 l 694 139 l 694 0 l 278 0 l 278 139 l 139 139 l 139 972 l 0 972 l 0 1111 m 278 1528 l 417 1528 l 417 1389 l 556 1389 l 556 1250 l 417 1250 l 417 1389 l 278 1389 l 278 1528 z "},"Ú":{"ha":1111,"x_min":0,"x_max":972,"o":"m 0 1111 l 417 1111 l 417 972 l 278 972 l 278 139 l 694 139 l 694 972 l 556 972 l 556 1111 l 972 1111 l 972 972 l 833 972 l 833 139 l 694 139 l 694 0 l 278 0 l 278 139 l 139 139 l 139 972 l 0 972 l 0 1111 m 417 1389 l 556 1389 l 556 1528 l 694 1528 l 694 1389 l 556 1389 l 556 1250 l 417 1250 l 417 1389 z "},"Û":{"ha":1111,"x_min":0,"x_max":972,"o":"m 0 1111 l 417 1111 l 417 972 l 278 972 l 278 139 l 694 139 l 694 972 l 556 972 l 556 1111 l 972 1111 l 972 972 l 833 972 l 833 139 l 694 139 l 694 0 l 278 0 l 278 139 l 139 139 l 139 972 l 0 972 l 0 1111 m 278 1389 l 417 1389 l 417 1528 l 556 1528 l 556 1389 l 694 1389 l 694 1250 l 556 1250 l 556 1389 l 417 1389 l 417 1250 l 278 1250 l 278 1389 z "},"Ü":{"ha":1111,"x_min":0,"x_max":972,"o":"m 0 1111 l 417 1111 l 417 972 l 278 972 l 278 139 l 694 139 l 694 972 l 556 972 l 556 1111 l 972 1111 l 972 972 l 833 972 l 833 139 l 694 139 l 694 0 l 278 0 l 278 139 l 139 139 l 139 972 l 0 972 l 0 1111 m 278 1389 l 417 1389 l 417 1250 l 278 1250 l 278 1389 m 556 1389 l 694 1389 l 694 1250 l 556 1250 l 556 1389 z "},"Ý":{"ha":1111,"x_min":0,"x_max":972,"o":"m 0 1111 l 417 1111 l 417 972 l 278 972 l 278 833 l 417 833 l 417 694 l 556 694 l 556 833 l 694 833 l 694 972 l 556 972 l 556 1111 l 972 1111 l 972 972 l 833 972 l 833 833 l 694 833 l 694 694 l 556 694 l 556 139 l 694 139 l 694 0 l 278 0 l 278 139 l 417 139 l 417 694 l 278 694 l 278 833 l 139 833 l 139 972 l 0 972 l 0 1111 m 417 1389 l 556 1389 l 556 1528 l 694 1528 l 694 1389 l 556 1389 l 556 1250 l 417 1250 l 417 1389 z "},"Þ":{"ha":972,"x_min":0,"x_max":833,"o":"m 0 1111 l 417 1111 l 417 972 l 278 972 l 278 833 l 694 833 l 694 694 l 833 694 l 833 417 l 694 417 l 694 278 l 278 278 l 278 139 l 417 139 l 417 0 l 0 0 l 0 139 l 139 139 l 139 972 l 0 972 l 0 1111 m 694 694 l 278 694 l 278 417 l 694 417 l 694 694 z "},"ß":{"ha":833,"x_min":0,"x_max":694,"o":"m 0 972 l 139 972 l 139 1111 l 417 1111 l 417 972 l 556 972 l 556 556 l 694 556 l 694 139 l 556 139 l 556 0 l 278 0 l 278 139 l 556 139 l 556 556 l 139 556 l 139 0 l 0 0 l 0 972 m 139 694 l 417 694 l 417 972 l 139 972 l 139 694 z "},"à":{"ha":833,"x_min":0,"x_max":694,"o":"m 139 833 l 556 833 l 556 694 l 694 694 l 694 0 l 139 0 l 139 139 l 0 139 l 0 417 l 139 417 l 139 556 l 556 556 l 556 694 l 139 694 l 139 833 m 139 139 l 556 139 l 556 417 l 139 417 l 139 139 m 139 1250 l 278 1250 l 278 1111 l 417 1111 l 417 972 l 278 972 l 278 1111 l 139 1111 l 139 1250 z "},"á":{"ha":833,"x_min":0,"x_max":694,"o":"m 139 833 l 556 833 l 556 694 l 694 694 l 694 0 l 139 0 l 139 139 l 0 139 l 0 417 l 139 417 l 139 556 l 556 556 l 556 694 l 139 694 l 139 833 m 139 139 l 556 139 l 556 417 l 139 417 l 139 139 m 278 1111 l 417 1111 l 417 1250 l 556 1250 l 556 1111 l 417 1111 l 417 972 l 278 972 l 278 1111 z "},"â":{"ha":833,"x_min":0,"x_max":694,"o":"m 139 833 l 556 833 l 556 694 l 694 694 l 694 0 l 139 0 l 139 139 l 0 139 l 0 417 l 139 417 l 139 556 l 556 556 l 556 694 l 139 694 l 139 833 m 139 139 l 556 139 l 556 417 l 139 417 l 139 139 m 139 1250 l 278 1250 l 278 1111 l 417 1111 l 417 1250 l 556 1250 l 556 1111 l 417 1111 l 417 972 l 278 972 l 278 1111 l 139 1111 l 139 1250 z "},"ã":{"ha":833,"x_min":0,"x_max":694,"o":"m 139 833 l 556 833 l 556 694 l 694 694 l 694 0 l 139 0 l 139 139 l 0 139 l 0 417 l 139 417 l 139 556 l 556 556 l 556 694 l 139 694 l 139 833 m 139 139 l 556 139 l 556 417 l 139 417 l 139 139 m 139 1111 l 278 1111 l 278 1250 l 417 1250 l 417 1111 l 556 1111 l 556 1250 l 694 1250 l 694 1111 l 556 1111 l 556 972 l 417 972 l 417 1111 l 278 1111 l 278 972 l 139 972 l 139 1111 z "},"ä":{"ha":833,"x_min":0,"x_max":694,"o":"m 139 833 l 556 833 l 556 694 l 694 694 l 694 0 l 139 0 l 139 139 l 0 139 l 0 417 l 139 417 l 139 556 l 556 556 l 556 694 l 139 694 l 139 833 m 139 139 l 556 139 l 556 417 l 139 417 l 139 139 m 139 1111 l 278 1111 l 278 972 l 139 972 l 139 1111 m 417 1111 l 556 1111 l 556 972 l 417 972 l 417 1111 z "},"å":{"ha":833,"x_min":0,"x_max":694,"o":"m 139 833 l 556 833 l 556 694 l 694 694 l 694 0 l 139 0 l 139 139 l 0 139 l 0 417 l 139 417 l 139 556 l 556 556 l 556 694 l 139 694 l 139 833 m 139 139 l 556 139 l 556 417 l 139 417 l 139 139 m 139 1250 l 278 1250 l 278 1389 l 417 1389 l 417 1250 l 556 1250 l 556 1111 l 417 1111 l 417 972 l 278 972 l 278 1111 l 139 1111 l 139 1250 m 278 1111 l 417 1111 l 417 1250 l 278 1250 l 278 1111 z "},"æ":{"ha":1111,"x_min":0,"x_max":972,"o":"m 139 833 l 417 833 l 417 694 l 556 694 l 556 833 l 833 833 l 833 694 l 972 694 l 972 278 l 556 278 l 556 139 l 972 139 l 972 0 l 139 0 l 139 139 l 0 139 l 0 417 l 139 417 l 139 556 l 417 556 l 417 694 l 139 694 l 139 833 m 139 139 l 417 139 l 417 417 l 139 417 l 139 139 m 556 417 l 833 417 l 833 694 l 556 694 l 556 417 z "},"ç":{"ha":833,"x_min":0,"x_max":694,"o":"m 556 694 l 139 694 l 139 139 l 556 139 l 556 278 l 694 278 l 694 0 l 417 0 l 417 -139 l 278 -139 l 278 -278 l 0 -278 l 0 -139 l 278 -139 l 278 0 l 139 0 l 139 139 l 0 139 l 0 694 l 139 694 l 139 833 l 694 833 l 694 556 l 556 556 l 556 694 z "},"è":{"ha":833,"x_min":0,"x_max":694,"o":"m 0 694 l 139 694 l 139 833 l 556 833 l 556 694 l 694 694 l 694 278 l 139 278 l 139 139 l 694 139 l 694 0 l 139 0 l 139 139 l 0 139 l 0 694 m 139 694 l 139 417 l 556 417 l 556 693 l 139 694 m 139 1250 l 278 1250 l 278 1111 l 417 1111 l 417 972 l 278 972 l 278 1111 l 139 1111 l 139 1250 z "},"é":{"ha":833,"x_min":0,"x_max":694,"o":"m 0 694 l 139 694 l 139 833 l 556 833 l 556 694 l 694 694 l 694 278 l 139 278 l 139 139 l 694 139 l 694 0 l 139 0 l 139 139 l 0 139 l 0 694 m 139 417 l 556 417 l 556 694 l 139 694 l 139 417 m 278 1111 l 417 1111 l 417 1250 l 556 1250 l 556 1111 l 417 1111 l 417 972 l 278 972 l 278 1111 z "},"ê":{"ha":833,"x_min":0,"x_max":694,"o":"m 0 694 l 139 694 l 139 833 l 556 833 l 556 694 l 694 694 l 694 278 l 139 278 l 139 139 l 694 139 l 694 0 l 139 0 l 139 139 l 0 139 l 0 694 m 139 417 l 556 417 l 556 694 l 139 694 l 139 417 m 139 1111 l 278 1111 l 278 1250 l 417 1250 l 417 1111 l 556 1111 l 556 972 l 417 972 l 417 1111 l 278 1111 l 278 972 l 139 972 l 139 1111 z "},"ë":{"ha":833,"x_min":0,"x_max":694,"o":"m 0 694 l 139 694 l 139 833 l 556 833 l 556 694 l 694 694 l 694 278 l 139 278 l 139 139 l 694 139 l 694 0 l 139 0 l 139 139 l 0 139 l 0 694 m 139 417 l 556 417 l 556 694 l 139 694 l 139 417 m 417 1111 l 556 1111 l 556 972 l 417 972 l 417 1111 m 139 1111 l 278 1111 l 278 972 l 139 972 l 139 1111 z "},"ì":{"ha":556,"x_min":0,"x_max":417,"o":"m 0 833 l 278 833 l 278 139 l 417 139 l 417 0 l 0 0 l 0 139 l 139 139 l 139 694 l 0 694 l 0 833 m 0 1250 l 139 1250 l 139 1111 l 278 1111 l 278 972 l 139 972 l 139 1111 l 0 1111 l 0 1250 z "},"í":{"ha":556,"x_min":0,"x_max":417,"o":"m 0 833 l 278 833 l 278 139 l 417 139 l 417 0 l 0 0 l 0 139 l 139 139 l 139 694 l 0 694 l 0 833 m 139 1111 l 278 1111 l 278 1250 l 417 1250 l 417 1111 l 278 1111 l 278 972 l 139 972 l 139 1111 z "},"î":{"ha":556,"x_min":0,"x_max":417,"o":"m 0 833 l 278 833 l 278 139 l 417 139 l 417 0 l 0 0 l 0 139 l 139 139 l 139 694 l 0 694 l 0 833 m 0 1111 l 139 1111 l 139 1250 l 278 1250 l 278 1111 l 417 1111 l 417 972 l 278 972 l 278 1111 l 139 1111 l 139 972 l 0 972 l 0 1111 z "},"ï":{"ha":556,"x_min":0,"x_max":417,"o":"m 0 833 l 278 833 l 278 139 l 417 139 l 417 0 l 0 0 l 0 139 l 139 139 l 139 694 l 0 694 l 0 833 m 0 1111 l 139 1111 l 139 972 l 0 972 l 0 1111 m 278 1111 l 417 1111 l 417 972 l 278 972 l 278 1111 z "},"ð":{"ha":694,"x_min":0,"x_max":694,"o":"m 278 1111 l 556 1111 l 556 972 l 694 972 l 694 139 l 556 139 l 556 0 l 139 0 l 139 139 l 0 139 l 0 694 l 139 694 l 139 833 l 556 833 l 556 972 l 278 972 l 278 1111 m 139 139 l 556 139 l 556 694 l 139 694 l 139 139 z "},"ñ":{"ha":1111,"x_min":0,"x_max":972,"o":"m 0 833 l 694 833 l 694 694 l 833 694 l 833 139 l 972 139 l 972 0 l 556 0 l 556 139 l 694 139 l 694 694 l 278 694 l 278 139 l 417 139 l 417 0 l 0 0 l 0 139 l 139 139 l 139 694 l 0 694 l 0 833 m 278 1111 l 417 1111 l 417 1250 l 556 1250 l 556 1111 l 694 1111 l 694 1250 l 833 1250 l 833 1111 l 694 1111 l 694 972 l 556 972 l 556 1111 l 417 1111 l 417 972 l 278 972 l 278 1111 z "},"ò":{"ha":833,"x_min":0,"x_max":694,"o":"m 0 694 l 139 694 l 139 833 l 556 833 l 556 694 l 694 694 l 694 139 l 556 139 l 556 0 l 139 0 l 139 139 l 0 139 l 0 694 m 139 139 l 556 139 l 556 694 l 139 694 l 139 139 m 139 1250 l 278 1250 l 278 1111 l 417 1111 l 417 972 l 278 972 l 278 1111 l 139 1111 l 139 1250 z "},"ó":{"ha":833,"x_min":0,"x_max":694,"o":"m 0 694 l 139 694 l 139 833 l 556 833 l 556 694 l 694 694 l 694 139 l 556 139 l 556 0 l 139 0 l 139 139 l 0 139 l 0 694 m 139 139 l 556 139 l 556 694 l 139 694 l 139 139 m 278 1111 l 417 1111 l 417 1250 l 556 1250 l 556 1111 l 417 1111 l 417 972 l 278 972 l 278 1111 z "},"ô":{"ha":833,"x_min":0,"x_max":694,"o":"m 0 694 l 139 694 l 139 833 l 556 833 l 556 694 l 694 694 l 694 139 l 556 139 l 556 0 l 139 0 l 139 139 l 0 139 l 0 694 m 139 139 l 556 139 l 556 694 l 139 694 l 139 139 m 139 1111 l 278 1111 l 278 1250 l 417 1250 l 417 1111 l 556 1111 l 556 972 l 417 972 l 417 1111 l 278 1111 l 278 972 l 139 972 l 139 1111 z "},"õ":{"ha":833,"x_min":0,"x_max":694,"o":"m 0 694 l 139 694 l 139 833 l 556 833 l 556 694 l 694 694 l 694 139 l 556 139 l 556 0 l 139 0 l 139 139 l 0 139 l 0 694 m 139 139 l 556 139 l 556 694 l 139 694 l 139 139 m 139 1111 l 278 1111 l 278 1250 l 417 1250 l 417 1111 l 556 1111 l 556 1250 l 694 1250 l 694 1111 l 556 1111 l 556 972 l 417 972 l 417 1111 l 278 1111 l 278 972 l 139 972 l 139 1111 z "},"ö":{"ha":833,"x_min":0,"x_max":694,"o":"m 0 694 l 139 694 l 139 833 l 556 833 l 556 694 l 694 694 l 694 139 l 556 139 l 556 0 l 139 0 l 139 139 l 0 139 l 0 694 m 139 139 l 556 139 l 556 694 l 139 694 l 139 139 m 417 1111 l 556 1111 l 556 972 l 417 972 l 417 1111 m 139 1111 l 278 1111 l 278 972 l 139 972 l 139 1111 z "},"÷":{"ha":833,"x_min":0,"x_max":694,"o":"m 0 556 l 694 556 l 694 417 l 0 417 l 0 556 m 278 278 l 417 278 l 417 139 l 278 139 l 278 278 m 278 833 l 417 833 l 417 694 l 278 694 l 278 833 z "},"ø":{"ha":833,"x_min":0,"x_max":694,"o":"m 0 694 l 139 694 l 139 833 l 556 833 l 556 694 l 694 694 l 694 139 l 556 139 l 556 0 l 139 0 l 139 139 l 0 139 l 0 694 m 139 278 l 278 278 l 278 417 l 417 417 l 417 556 l 556 556 l 556 694 l 139 694 l 139 278 m 556 417 l 417 417 l 417 278 l 278 278 l 278 139 l 556 139 l 556 417 z "},"ù":{"ha":1111,"x_min":0,"x_max":972,"o":"m 0 833 l 417 833 l 417 694 l 278 694 l 278 139 l 694 139 l 694 694 l 556 694 l 556 833 l 972 833 l 972 694 l 833 694 l 833 139 l 694 139 l 694 0 l 278 0 l 278 139 l 139 139 l 139 694 l 0 694 l 0 833 m 278 1250 l 417 1250 l 417 1111 l 556 1111 l 556 972 l 417 972 l 417 1111 l 278 1111 l 278 1250 z "},"ú":{"ha":1111,"x_min":0,"x_max":972,"o":"m 0 833 l 417 833 l 417 694 l 278 694 l 278 139 l 694 139 l 694 694 l 556 694 l 556 833 l 972 833 l 972 694 l 833 694 l 833 139 l 694 139 l 694 0 l 278 0 l 278 139 l 139 139 l 139 694 l 0 694 l 0 833 m 417 1111 l 556 1111 l 556 1250 l 694 1250 l 694 1111 l 556 1111 l 556 972 l 417 972 l 417 1111 z "},"û":{"ha":1111,"x_min":0,"x_max":972,"o":"m 0 833 l 417 833 l 417 694 l 278 694 l 278 139 l 694 139 l 694 694 l 556 694 l 556 833 l 972 833 l 972 694 l 833 694 l 833 139 l 694 139 l 694 0 l 278 0 l 278 139 l 139 139 l 139 694 l 0 694 l 0 833 m 278 1111 l 417 1111 l 417 1250 l 556 1250 l 556 1111 l 694 1111 l 694 972 l 556 972 l 556 1111 l 417 1111 l 417 972 l 278 972 l 278 1111 z "},"ü":{"ha":1111,"x_min":0,"x_max":972,"o":"m 0 833 l 417 833 l 417 694 l 278 694 l 278 139 l 694 139 l 694 694 l 556 694 l 556 833 l 972 833 l 972 694 l 833 694 l 833 139 l 694 139 l 694 0 l 278 0 l 278 139 l 139 139 l 139 694 l 0 694 l 0 833 m 278 1111 l 417 1111 l 417 972 l 278 972 l 278 1111 m 556 1111 l 694 1111 l 694 972 l 556 972 l 556 1111 z "},"ý":{"ha":1111,"x_min":0,"x_max":972,"o":"m 0 833 l 417 833 l 417 694 l 278 694 l 278 139 l 694 139 l 694 694 l 556 694 l 556 833 l 972 833 l 972 694 l 833 694 l 833 -139 l 694 -139 l 694 -278 l 278 -278 l 278 -139 l 694 -139 l 694 0 l 278 0 l 278 139 l 139 139 l 139 694 l 0 694 l 0 833 m 417 1111 l 556 1111 l 556 1250 l 694 1250 l 694 1111 l 556 1111 l 556 972 l 417 972 l 417 1111 z "},"þ":{"ha":972,"x_min":0,"x_max":833,"o":"m 0 972 l 417 972 l 417 833 l 278 833 l 278 694 l 694 694 l 694 556 l 833 556 l 833 139 l 694 139 l 694 0 l 278 0 l 278 -139 l 417 -139 l 417 -278 l 0 -278 l 0 -139 l 139 -139 l 139 833 l 0 833 l 0 972 m 694 556 l 278 556 l 278 139 l 694 139 l 694 556 z "},"ÿ":{"ha":1111,"x_min":0,"x_max":972,"o":"m 0 833 l 417 833 l 417 694 l 278 694 l 278 139 l 694 139 l 694 694 l 556 694 l 556 833 l 972 833 l 972 694 l 833 694 l 833 -139 l 694 -139 l 694 -278 l 278 -278 l 278 -139 l 694 -139 l 694 0 l 278 0 l 278 139 l 139 139 l 139 694 l 0 694 l 0 833 m 278 1111 l 417 1111 l 417 972 l 278 972 l 278 1111 m 556 1111 l 694 1111 l 694 972 l 556 972 l 556 1111 z "},"Ё":{"ha":972,"x_min":0,"x_max":833,"o":"m 0 1111 l 833 1111 l 833 833 l 694 833 l 694 972 l 278 972 l 278 694 l 556 694 l 556 556 l 278 556 l 278 139 l 694 139 l 694 278 l 833 278 l 833 0 l 0 0 l 0 139 l 139 139 l 139 972 l 0 972 l 0 1111 m 278 1389 l 417 1389 l 417 1250 l 278 1250 l 278 1389 m 556 1389 l 694 1389 l 694 1250 l 556 1250 l 556 1389 z "},"Ђ":{"ha":972,"x_min":0,"x_max":833,"o":"m 0 1111 l 417 1111 l 417 972 l 278 972 l 278 833 l 694 833 l 694 694 l 833 694 l 833 139 l 694 139 l 694 0 l 556 0 l 556 139 l 694 139 l 694 694 l 278 694 l 278 139 l 417 139 l 417 0 l 0 0 l 0 139 l 139 139 l 139 972 l 0 972 l 0 1111 z "},"Ѓ":{"ha":972,"x_min":0,"x_max":833,"o":"m 0 1111 l 833 1111 l 833 833 l 694 833 l 694 972 l 278 972 l 278 139 l 417 139 l 417 0 l 0 0 l 0 139 l 139 139 l 139 972 l 0 972 l 0 1111 m 417 1389 l 556 1389 l 556 1528 l 694 1528 l 694 1389 l 556 1389 l 556 1250 l 417 1250 l 417 1389 z "},"Є":{"ha":833,"x_min":0,"x_max":694,"o":"m 0 972 l 139 972 l 139 1111 l 694 1111 l 694 833 l 556 833 l 556 972 l 139 972 l 139 694 l 417 694 l 417 556 l 139 556 l 139 139 l 556 139 l 556 278 l 694 278 l 694 0 l 139 0 l 139 139 l 0 139 l 0 972 z "},"Ѕ":{"ha":833,"x_min":0,"x_max":694,"o":"m 0 972 l 139 972 l 139 1111 l 694 1111 l 694 833 l 556 833 l 556 972 l 139 972 l 139 694 l 556 694 l 556 556 l 694 556 l 694 139 l 556 139 l 556 0 l 0 0 l 0 278 l 139 278 l 139 139 l 556 139 l 556 556 l 139 556 l 139 694 l 0 694 l 0 972 z "},"І":{"ha":833,"x_min":0,"x_max":694,"o":"m 0 1111 l 694 1111 l 694 972 l 417 972 l 417 139 l 694 139 l 694 0 l 0 0 l 0 139 l 278 139 l 278 972 l 0 972 l 0 1111 z "},"Ї":{"ha":833,"x_min":0,"x_max":694,"o":"m 0 139 l 278 139 l 278 972 l 0 972 l 0 1111 l 694 1111 l 694 972 l 417 972 l 417 139 l 694 139 l 694 0 l 0 0 l 0 139 m 417 1389 l 556 1389 l 556 1250 l 417 1250 l 417 1389 m 139 1389 l 278 1389 l 278 1250 l 139 1250 l 139 1389 z "},"Ј":{"ha":833,"x_min":0,"x_max":694,"o":"m 0 1111 l 694 1111 l 694 139 l 556 139 l 556 0 l 139 0 l 139 139 l 0 139 l 0 417 l 139 417 l 139 139 l 556 139 l 556 972 l 139 972 l 139 833 l 0 833 l 0 1111 z "},"Љ":{"ha":1528,"x_min":0,"x_max":1389,"o":"m 0 139 l 139 139 l 139 972 l 278 972 l 278 1111 l 972 1111 l 972 972 l 833 972 l 833 694 l 1250 694 l 1250 556 l 1389 556 l 1389 139 l 1250 139 l 1250 0 l 556 0 l 556 139 l 694 139 l 694 972 l 278 972 l 278 139 l 417 139 l 417 0 l 0 0 l 0 139 m 1250 556 l 833 556 l 833 139 l 1250 139 l 1250 556 z "},"Њ":{"ha":1528,"x_min":0,"x_max":1389,"o":"m 0 1111 l 417 1111 l 417 972 l 278 972 l 278 694 l 694 694 l 694 972 l 556 972 l 556 1111 l 972 1111 l 972 972 l 833 972 l 833 694 l 1250 694 l 1250 556 l 1389 556 l 1389 139 l 1250 139 l 1250 0 l 556 0 l 556 139 l 694 139 l 694 556 l 278 556 l 278 139 l 417 139 l 417 0 l 0 0 l 0 139 l 139 139 l 139 972 l 0 972 l 0 1111 m 833 139 l 1250 139 l 1250 556 l 833 556 l 833 139 z "},"Ћ":{"ha":972,"x_min":0,"x_max":972,"o":"m 0 1111 l 556 1111 l 556 972 l 278 972 l 278 833 l 694 833 l 694 694 l 833 694 l 833 139 l 972 139 l 972 0 l 556 0 l 556 139 l 694 139 l 694 694 l 278 694 l 278 139 l 417 139 l 417 0 l 0 0 l 0 139 l 139 139 l 139 972 l 0 972 l 0 1111 z "},"Ќ":{"ha":1111,"x_min":0,"x_max":972,"o":"m 0 1111 l 417 1111 l 417 972 l 278 972 l 278 694 l 556 694 l 556 833 l 694 833 l 694 972 l 556 972 l 556 1111 l 972 1111 l 972 972 l 833 972 l 833 833 l 694 833 l 694 694 l 556 694 l 556 556 l 694 556 l 694 417 l 833 417 l 833 139 l 972 139 l 972 0 l 556 0 l 556 139 l 694 139 l 694 417 l 556 417 l 556 556 l 278 556 l 278 139 l 417 139 l 417 0 l 0 0 l 0 139 l 139 139 l 139 972 l 0 972 l 0 1111 m 417 1389 l 556 1389 l 556 1528 l 694 1528 l 694 1389 l 556 1389 l 556 1250 l 417 1250 l 417 1389 z "},"Ў":{"ha":1111,"x_min":0,"x_max":972,"o":"m 0 1111 l 417 1111 l 417 972 l 278 972 l 278 833 l 417 833 l 417 694 l 556 694 l 556 833 l 694 833 l 694 972 l 556 972 l 556 1111 l 972 1111 l 972 972 l 833 972 l 833 833 l 694 833 l 694 694 l 556 694 l 556 139 l 694 139 l 694 0 l 278 0 l 278 139 l 417 139 l 417 694 l 278 694 l 278 833 l 139 833 l 139 972 l 0 972 l 0 1111 m 278 1528 l 417 1528 l 417 1389 l 556 1389 l 556 1528 l 694 1528 l 694 1389 l 556 1389 l 556 1250 l 417 1250 l 417 1389 l 278 1389 l 278 1528 z "},"Џ":{"ha":1111,"x_min":0,"x_max":972,"o":"m 0 1111 l 417 1111 l 417 972 l 278 972 l 278 139 l 694 139 l 694 972 l 556 972 l 556 1111 l 972 1111 l 972 972 l 833 972 l 833 0 l 556 0 l 556 -278 l 417 -278 l 417 0 l 139 0 l 139 972 l 0 972 l 0 1111 z "},"А":{"ha":1111,"x_min":0,"x_max":972,"o":"m 0 139 l 139 139 l 139 972 l 278 972 l 278 1111 l 694 1111 l 694 972 l 833 972 l 833 139 l 972 139 l 972 0 l 556 0 l 556 139 l 694 139 l 694 417 l 278 417 l 278 139 l 417 139 l 417 0 l 0 0 l 0 139 m 278 556 l 694 556 l 694 972 l 278 972 l 278 556 z "},"Б":{"ha":972,"x_min":0,"x_max":833,"o":"m 0 1111 l 833 1111 l 833 833 l 694 833 l 694 972 l 278 972 l 278 694 l 694 694 l 694 556 l 833 556 l 833 139 l 694 139 l 694 0 l 0 0 l 0 139 l 139 139 l 139 972 l 0 972 l 0 1111 m 278 139 l 694 139 l 694 556 l 278 556 l 278 139 z "},"В":{"ha":972,"x_min":0,"x_max":833,"o":"m 0 1111 l 694 1111 l 694 972 l 833 972 l 833 694 l 694 694 l 694 556 l 833 556 l 833 139 l 694 139 l 694 0 l 0 0 l 0 139 l 139 139 l 139 972 l 0 972 l 0 1111 m 278 139 l 694 139 l 694 556 l 278 556 l 278 139 m 278 694 l 694 694 l 694 972 l 278 972 l 278 694 z "},"Г":{"ha":972,"x_min":0,"x_max":833,"o":"m 0 1111 l 833 1111 l 833 833 l 694 833 l 694 972 l 278 972 l 278 139 l 417 139 l 417 0 l 0 0 l 0 139 l 139 139 l 139 972 l 0 972 l 0 1111 z "},"Д":{"ha":972,"x_min":0,"x_max":833,"o":"m 0 139 l 139 139 l 139 972 l 278 972 l 278 1111 l 694 1111 l 694 139 l 833 139 l 833 -139 l 694 -139 l 694 0 l 139 0 l 139 -139 l 0 -139 l 0 139 m 278 139 l 556 139 l 556 972 l 278 972 l 278 139 z "},"Е":{"ha":972,"x_min":0,"x_max":833,"o":"m 0 1111 l 833 1111 l 833 833 l 694 833 l 694 972 l 278 972 l 278 694 l 556 694 l 556 556 l 278 556 l 278 139 l 694 139 l 694 278 l 833 278 l 833 0 l 0 0 l 0 139 l 139 139 l 139 972 l 0 972 l 0 1111 z "},"Ж":{"ha":1389,"x_min":-139,"x_max":1111,"o":"m -139 1111 l 139 1111 l 139 833 l 278 833 l 278 694 l 417 694 l 417 972 l 278 972 l 278 1111 l 694 1111 l 694 972 l 556 972 l 556 694 l 694 694 l 694 833 l 833 833 l 833 1111 l 1111 1111 l 1111 972 l 972 972 l 972 833 l 833 833 l 833 694 l 694 694 l 694 556 l 833 556 l 833 417 l 972 417 l 972 139 l 1111 139 l 1111 0 l 833 0 l 833 417 l 694 417 l 694 556 l 556 556 l 556 139 l 694 139 l 694 0 l 278 0 l 278 139 l 417 139 l 417 556 l 278 556 l 278 417 l 139 417 l 139 0 l -139 0 l -139 139 l 0 139 l 0 417 l 139 417 l 139 556 l 278 556 l 278 694 l 139 694 l 139 833 l 0 833 l 0 972 l -139 972 l -139 1111 z "},"З":{"ha":833,"x_min":0,"x_max":694,"o":"m 0 1111 l 556 1111 l 556 972 l 694 972 l 694 694 l 556 694 l 556 556 l 694 556 l 694 139 l 556 139 l 556 0 l 0 0 l 0 278 l 139 278 l 139 139 l 556 139 l 556 556 l 139 556 l 139 694 l 556 694 l 556 972 l 139 972 l 139 833 l 0 833 l 0 1111 z "},"И":{"ha":1111,"x_min":0,"x_max":972,"o":"m 0 1111 l 417 1111 l 417 972 l 278 972 l 278 417 l 417 417 l 417 556 l 556 556 l 556 694 l 694 694 l 694 972 l 556 972 l 556 1111 l 972 1111 l 972 972 l 833 972 l 833 139 l 972 139 l 972 0 l 556 0 l 556 139 l 694 139 l 694 556 l 556 556 l 556 417 l 417 417 l 417 278 l 278 278 l 278 139 l 417 139 l 417 0 l 0 0 l 0 139 l 139 139 l 139 972 l 0 972 l 0 1111 z "},"Й":{"ha":1111,"x_min":0,"x_max":972,"o":"m 0 1111 l 417 1111 l 417 972 l 278 972 l 278 417 l 417 417 l 417 556 l 556 556 l 556 694 l 694 694 l 694 972 l 556 972 l 556 1111 l 972 1111 l 972 972 l 833 972 l 833 139 l 972 139 l 972 0 l 556 0 l 556 139 l 694 139 l 694 556 l 556 556 l 556 417 l 417 417 l 417 278 l 278 278 l 278 139 l 417 139 l 417 0 l 0 0 l 0 139 l 139 139 l 139 972 l 0 972 l 0 1111 m 278 1528 l 417 1528 l 417 1389 l 556 1389 l 556 1528 l 694 1528 l 694 1389 l 556 1389 l 556 1250 l 417 1250 l 417 1389 l 278 1389 l 278 1528 z "},"К":{"ha":1111,"x_min":0,"x_max":972,"o":"m 0 1111 l 417 1111 l 417 972 l 278 972 l 278 694 l 556 694 l 556 833 l 694 833 l 694 972 l 556 972 l 556 1111 l 972 1111 l 972 972 l 833 972 l 833 833 l 694 833 l 694 694 l 556 694 l 556 556 l 694 556 l 694 417 l 833 417 l 833 139 l 972 139 l 972 0 l 556 0 l 556 139 l 694 139 l 694 417 l 556 417 l 556 556 l 278 556 l 278 139 l 417 139 l 417 0 l 0 0 l 0 139 l 139 139 l 139 972 l 0 972 l 0 1111 z "},"Л":{"ha":1111,"x_min":0,"x_max":972,"o":"m 556 139 l 694 139 l 694 972 l 417 972 l 417 833 l 278 833 l 278 139 l 417 139 l 417 0 l 0 0 l 0 139 l 139 139 l 139 833 l 278 833 l 278 972 l 417 972 l 417 1111 l 972 1111 l 972 972 l 833 972 l 833 139 l 972 139 l 972 0 l 556 0 l 556 139 z "},"М":{"ha":1111,"x_min":0,"x_max":972,"o":"m 0 1111 l 417 1111 l 417 972 l 278 972 l 278 833 l 417 833 l 417 694 l 556 694 l 556 833 l 694 833 l 694 972 l 556 972 l 556 1111 l 972 1111 l 972 972 l 833 972 l 833 139 l 972 139 l 972 0 l 556 0 l 556 139 l 694 139 l 694 694 l 556 694 l 556 417 l 417 417 l 417 694 l 278 694 l 278 139 l 417 139 l 417 0 l 0 0 l 0 139 l 139 139 l 139 972 l 0 972 l 0 1111 z "},"Н":{"ha":1111,"x_min":0,"x_max":972,"o":"m 0 1111 l 417 1111 l 417 972 l 278 972 l 278 694 l 694 694 l 694 972 l 556 972 l 556 1111 l 972 1111 l 972 972 l 833 972 l 833 139 l 972 139 l 972 0 l 556 0 l 556 139 l 694 139 l 694 556 l 278 556 l 278 139 l 417 139 l 417 0 l 0 0 l 0 139 l 139 139 l 139 972 l 0 972 l 0 1111 z "},"О":{"ha":833,"x_min":0,"x_max":694,"o":"m 0 972 l 139 972 l 139 1111 l 556 1111 l 556 972 l 694 972 l 694 139 l 556 139 l 556 0 l 139 0 l 139 139 l 0 139 l 0 972 m 556 972 l 139 972 l 139 139 l 556 139 l 556 972 z "},"П":{"ha":1111,"x_min":0,"x_max":972,"o":"m 0 1111 l 972 1111 l 972 972 l 833 972 l 833 139 l 972 139 l 972 0 l 556 0 l 556 139 l 694 139 l 694 972 l 278 972 l 278 139 l 417 139 l 417 0 l 0 0 l 0 139 l 139 139 l 139 972 l 0 972 l 0 1111 z "},"Р":{"ha":972,"x_min":0,"x_max":833,"o":"m 0 1111 l 694 1111 l 694 972 l 833 972 l 833 556 l 694 556 l 694 417 l 278 417 l 278 139 l 417 139 l 417 0 l 0 0 l 0 139 l 139 139 l 139 972 l 0 972 l 0 1111 m 278 556 l 694 556 l 694 972 l 278 972 l 278 556 z "},"С":{"ha":833,"x_min":0,"x_max":694,"o":"m 556 972 l 139 972 l 139 139 l 556 139 l 556 278 l 694 278 l 694 0 l 139 0 l 139 139 l 0 139 l 0 972 l 139 972 l 139 1111 l 694 1111 l 694 833 l 556 833 l 556 972 z "},"Т":{"ha":1111,"x_min":0,"x_max":972,"o":"m 0 1111 l 972 1111 l 972 833 l 833 833 l 833 972 l 556 972 l 556 139 l 694 139 l 694 0 l 278 0 l 278 139 l 417 139 l 417 972 l 139 972 l 139 833 l 0 833 l 0 1111 z "},"У":{"ha":1111,"x_min":0,"x_max":972,"o":"m 0 1111 l 417 1111 l 417 972 l 278 972 l 278 556 l 694 556 l 694 972 l 556 972 l 556 1111 l 972 1111 l 972 972 l 833 972 l 833 139 l 694 139 l 694 0 l 139 0 l 139 139 l 694 139 l 694 417 l 278 417 l 278 556 l 139 556 l 139 972 l 0 972 l 0 1111 z "},"Ф":{"ha":1111,"x_min":0,"x_max":972,"o":"m 0 972 l 139 972 l 139 1111 l 833 1111 l 833 972 l 972 972 l 972 417 l 833 417 l 833 278 l 556 278 l 556 139 l 694 139 l 694 0 l 278 0 l 278 139 l 417 139 l 417 278 l 139 278 l 139 417 l 0 417 l 0 972 m 833 972 l 556 972 l 556 417 l 833 417 l 833 972 m 139 417 l 417 417 l 417 972 l 139 972 l 139 417 z "},"Х":{"ha":1111,"x_min":0,"x_max":972,"o":"m 0 1111 l 417 1111 l 417 972 l 278 972 l 278 833 l 417 833 l 417 694 l 556 694 l 556 833 l 694 833 l 694 972 l 556 972 l 556 1111 l 972 1111 l 972 972 l 833 972 l 833 833 l 694 833 l 694 694 l 556 694 l 556 417 l 694 417 l 694 278 l 833 278 l 833 139 l 972 139 l 972 0 l 556 0 l 556 139 l 694 139 l 694 278 l 556 278 l 556 417 l 417 417 l 417 278 l 278 278 l 278 139 l 417 139 l 417 0 l 0 0 l 0 139 l 139 139 l 139 278 l 278 278 l 278 417 l 417 417 l 417 694 l 278 694 l 278 833 l 139 833 l 139 972 l 0 972 l 0 1111 z "},"Ц":{"ha":1111,"x_min":0,"x_max":972,"o":"m 0 1111 l 417 1111 l 417 972 l 278 972 l 278 139 l 694 139 l 694 972 l 556 972 l 556 1111 l 972 1111 l 972 972 l 833 972 l 833 139 l 972 139 l 972 -139 l 833 -139 l 833 0 l 139 0 l 139 972 l 0 972 l 0 1111 z "},"Ч":{"ha":1111,"x_min":0,"x_max":972,"o":"m 0 1111 l 417 1111 l 417 972 l 278 972 l 278 417 l 694 417 l 694 972 l 556 972 l 556 1111 l 972 1111 l 972 972 l 833 972 l 833 139 l 972 139 l 972 0 l 556 0 l 556 139 l 694 139 l 694 278 l 278 278 l 278 417 l 139 417 l 139 972 l 0 972 l 0 1111 z "},"Ш":{"ha":1111,"x_min":0,"x_max":972,"o":"m 0 1111 l 139 1111 l 139 139 l 417 139 l 417 1111 l 556 1111 l 556 139 l 833 139 l 833 1111 l 972 1111 l 972 0 l 0 0 l 0 1111 z "},"Щ":{"ha":1250,"x_min":0,"x_max":1111,"o":"m 0 1111 l 139 1111 l 139 139 l 417 139 l 417 1111 l 556 1111 l 556 139 l 833 139 l 833 1111 l 972 1111 l 972 139 l 1111 139 l 1111 -139 l 972 -139 l 972 0 l 0 0 l 0 1111 z "},"Ъ":{"ha":1111,"x_min":0,"x_max":972,"o":"m 0 1111 l 556 1111 l 556 972 l 417 972 l 417 694 l 833 694 l 833 556 l 972 556 l 972 139 l 833 139 l 833 0 l 278 0 l 278 972 l 0 972 l 0 1111 m 417 139 l 833 139 l 833 556 l 417 556 l 417 139 z "},"Ы":{"ha":1528,"x_min":0,"x_max":1389,"o":"m 0 1111 l 417 1111 l 417 972 l 278 972 l 278 694 l 694 694 l 694 556 l 833 556 l 833 139 l 694 139 l 694 0 l 139 0 l 139 972 l 0 972 l 0 1111 m 972 1111 l 1389 1111 l 1389 972 l 1250 972 l 1250 139 l 1389 139 l 1389 0 l 972 0 l 972 139 l 1111 139 l 1111 972 l 972 972 l 972 1111 m 278 139 l 694 139 l 694 556 l 278 556 l 278 139 z "},"Ь":{"ha":972,"x_min":0,"x_max":833,"o":"m 0 1111 l 417 1111 l 417 972 l 278 972 l 278 694 l 694 694 l 694 556 l 833 556 l 833 139 l 694 139 l 694 0 l 139 0 l 139 972 l 0 972 l 0 1111 m 278 139 l 694 139 l 694 556 l 278 556 l 278 139 z "},"Э":{"ha":833,"x_min":0,"x_max":694,"o":"m 0 1111 l 556 1111 l 556 972 l 694 972 l 694 139 l 556 139 l 556 0 l 0 0 l 0 278 l 139 278 l 139 139 l 556 139 l 556 556 l 278 556 l 278 694 l 556 694 l 556 972 l 139 972 l 139 833 l 0 833 l 0 1111 z "},"Ю":{"ha":1389,"x_min":0,"x_max":1250,"o":"m 0 1111 l 417 1111 l 417 972 l 278 972 l 278 694 l 556 694 l 556 972 l 694 972 l 694 1111 l 1111 1111 l 1111 972 l 1250 972 l 1250 139 l 1111 139 l 1111 0 l 694 0 l 694 139 l 556 139 l 556 556 l 278 556 l 278 139 l 417 139 l 417 0 l 0 0 l 0 139 l 139 139 l 139 972 l 0 972 l 0 1111 m 694 139 l 1111 139 l 1111 972 l 694 972 l 694 139 z "},"Я":{"ha":1111,"x_min":0,"x_max":972,"o":"m 139 972 l 278 972 l 278 1111 l 972 1111 l 972 972 l 833 972 l 833 139 l 972 139 l 972 0 l 556 0 l 556 139 l 694 139 l 694 417 l 417 417 l 417 278 l 278 278 l 278 139 l 417 139 l 417 0 l 0 0 l 0 139 l 139 139 l 139 278 l 278 278 l 278 556 l 139 556 l 139 972 m 278 556 l 694 556 l 694 972 l 278 972 l 278 556 z "},"а":{"ha":833,"x_min":0,"x_max":694,"o":"m 139 833 l 556 833 l 556 694 l 694 694 l 694 0 l 139 0 l 139 139 l 0 139 l 0 417 l 139 417 l 139 556 l 556 556 l 556 694 l 139 694 l 139 833 m 139 139 l 556 139 l 556 417 l 139 417 l 139 139 z "},"б":{"ha":833,"x_min":0,"x_max":694,"o":"m 0 972 l 139 972 l 139 1111 l 417 1111 l 417 1250 l 556 1250 l 556 1111 l 417 1111 l 417 972 l 139 972 l 139 833 l 556 833 l 556 694 l 694 694 l 694 139 l 556 139 l 556 0 l 139 0 l 139 139 l 0 139 l 0 972 m 139 139 l 556 139 l 556 694 l 139 694 l 139 139 z "},"в":{"ha":833,"x_min":0,"x_max":694,"o":"m 0 972 l 139 972 l 139 1111 l 417 1111 l 417 972 l 556 972 l 556 694 l 694 694 l 694 139 l 556 139 l 556 0 l 139 0 l 139 139 l 0 139 l 0 972 m 139 139 l 556 139 l 556 694 l 139 694 l 139 139 m 139 833 l 417 833 l 417 972 l 139 972 l 139 833 z "},"г":{"ha":972,"x_min":0,"x_max":833,"o":"m 0 833 l 833 833 l 833 556 l 694 556 l 694 694 l 278 694 l 278 139 l 417 139 l 417 0 l 0 0 l 0 139 l 139 139 l 139 694 l 0 694 l 0 833 z "},"д":{"ha":833,"x_min":0,"x_max":694,"o":"m 139 1111 l 556 1111 l 556 972 l 694 972 l 694 139 l 556 139 l 556 0 l 139 0 l 139 139 l 0 139 l 0 694 l 139 694 l 139 833 l 556 833 l 556 972 l 139 972 l 139 1111 m 139 139 l 556 139 l 556 694 l 139 694 l 139 139 z "},"е":{"ha":833,"x_min":0,"x_max":694,"o":"m 0 694 l 139 694 l 139 833 l 556 833 l 556 694 l 694 694 l 694 278 l 139 278 l 139 139 l 694 139 l 694 0 l 139 0 l 139 139 l 0 139 l 0 694 m 139 417 l 556 417 l 556 694 l 139 694 l 139 417 z "},"ж":{"ha":1389,"x_min":0,"x_max":1250,"o":"m 0 833 l 278 833 l 278 556 l 556 556 l 556 694 l 417 694 l 417 833 l 833 833 l 833 694 l 694 694 l 694 556 l 972 556 l 972 833 l 1250 833 l 1250 694 l 1111 694 l 1111 556 l 972 556 l 972 417 l 1111 417 l 1111 139 l 1250 139 l 1250 0 l 972 0 l 972 417 l 694 417 l 694 139 l 833 139 l 833 0 l 417 0 l 417 139 l 556 139 l 556 417 l 278 417 l 278 0 l 0 0 l 0 139 l 139 139 l 139 417 l 278 417 l 278 556 l 139 556 l 139 694 l 0 694 l 0 833 z "},"з":{"ha":833,"x_min":0,"x_max":694,"o":"m 0 833 l 556 833 l 556 694 l 694 694 l 694 556 l 556 556 l 556 417 l 694 417 l 694 139 l 556 139 l 556 0 l 0 0 l 0 278 l 139 278 l 139 139 l 556 139 l 556 417 l 278 417 l 278 556 l 556 556 l 556 694 l 139 694 l 139 556 l 0 556 l 0 833 z "},"и":{"ha":1111,"x_min":0,"x_max":972,"o":"m 0 833 l 417 833 l 417 694 l 278 694 l 278 417 l 417 417 l 417 556 l 556 556 l 556 694 l 694 694 l 694 833 l 972 833 l 972 694 l 833 694 l 833 139 l 972 139 l 972 0 l 556 0 l 556 139 l 694 139 l 694 556 l 556 556 l 556 417 l 417 417 l 417 278 l 278 278 l 278 139 l 417 139 l 417 0 l 0 0 l 0 139 l 139 139 l 139 694 l 0 694 l 0 833 z "},"й":{"ha":1111,"x_min":0,"x_max":972,"o":"m 0 833 l 417 833 l 417 694 l 278 694 l 278 417 l 417 417 l 417 556 l 556 556 l 556 694 l 694 694 l 694 833 l 972 833 l 972 694 l 833 694 l 833 139 l 972 139 l 972 0 l 556 0 l 556 139 l 694 139 l 694 556 l 556 556 l 556 417 l 417 417 l 417 278 l 278 278 l 278 139 l 417 139 l 417 0 l 0 0 l 0 139 l 139 139 l 139 694 l 0 694 l 0 833 m 278 1250 l 417 1250 l 417 1111 l 556 1111 l 556 1250 l 694 1250 l 694 1111 l 556 1111 l 556 972 l 417 972 l 417 1111 l 278 1111 l 278 1250 z "},"к":{"ha":1111,"x_min":0,"x_max":972,"o":"m 0 833 l 417 833 l 417 694 l 278 694 l 278 556 l 556 556 l 556 833 l 972 833 l 972 694 l 694 694 l 694 556 l 556 556 l 556 417 l 694 417 l 694 278 l 833 278 l 833 139 l 972 139 l 972 0 l 556 0 l 556 139 l 694 139 l 694 278 l 556 278 l 556 417 l 278 417 l 278 139 l 417 139 l 417 0 l 0 0 l 0 139 l 139 139 l 139 694 l 0 694 l 0 833 z "},"л":{"ha":1111,"x_min":0,"x_max":972,"o":"m 0 139 l 139 139 l 139 556 l 278 556 l 278 694 l 417 694 l 417 833 l 972 833 l 972 694 l 833 694 l 833 139 l 972 139 l 972 0 l 556 0 l 556 139 l 694 139 l 694 694 l 417 694 l 417 556 l 278 556 l 278 139 l 417 139 l 417 0 l 0 0 l 0 139 z "},"м":{"ha":1111,"x_min":0,"x_max":972,"o":"m 0 833 l 417 833 l 417 694 l 278 694 l 278 556 l 417 556 l 417 417 l 556 417 l 556 556 l 694 556 l 694 694 l 556 694 l 556 833 l 972 833 l 972 694 l 833 694 l 833 139 l 972 139 l 972 0 l 556 0 l 556 139 l 694 139 l 694 417 l 556 417 l 556 278 l 417 278 l 417 417 l 278 417 l 278 139 l 417 139 l 417 0 l 0 0 l 0 139 l 139 139 l 139 694 l 0 694 l 0 833 z "},"н":{"ha":1111,"x_min":0,"x_max":972,"o":"m 0 833 l 417 833 l 417 694 l 278 694 l 278 556 l 694 556 l 694 694 l 556 694 l 556 833 l 972 833 l 972 694 l 833 694 l 833 139 l 972 139 l 972 0 l 556 0 l 556 139 l 694 139 l 694 417 l 278 417 l 278 139 l 417 139 l 417 0 l 0 0 l 0 139 l 139 139 l 139 694 l 0 694 l 0 833 z "},"о":{"ha":833,"x_min":0,"x_max":694,"o":"m 0 694 l 139 694 l 139 833 l 556 833 l 556 694 l 694 694 l 694 139 l 556 139 l 556 0 l 139 0 l 139 139 l 0 139 l 0 694 m 139 139 l 556 139 l 556 694 l 139 694 l 139 139 z "},"п":{"ha":1111,"x_min":0,"x_max":972,"o":"m 0 833 l 972 833 l 972 694 l 833 694 l 833 139 l 972 139 l 972 0 l 556 0 l 556 139 l 694 139 l 694 694 l 278 694 l 278 139 l 417 139 l 417 0 l 0 0 l 0 139 l 139 139 l 139 694 l 0 694 l 0 833 z "},"р":{"ha":972,"x_min":0,"x_max":833,"o":"m 0 833 l 694 833 l 694 694 l 833 694 l 833 139 l 694 139 l 694 0 l 278 0 l 278 -139 l 417 -139 l 417 -278 l 0 -278 l 0 -139 l 139 -139 l 139 694 l 0 694 l 0 833 m 278 139 l 694 139 l 694 694 l 278 694 l 278 139 z "},"с":{"ha":833,"x_min":0,"x_max":694,"o":"m 556 694 l 139 694 l 139 139 l 556 139 l 556 278 l 694 278 l 694 0 l 139 0 l 139 139 l 0 139 l 0 694 l 139 694 l 139 833 l 694 833 l 694 556 l 556 556 l 556 694 z "},"т":{"ha":833,"x_min":0,"x_max":694,"o":"m 0 833 l 694 833 l 694 556 l 556 556 l 556 694 l 417 694 l 417 139 l 556 139 l 556 0 l 139 0 l 139 139 l 278 139 l 278 694 l 139 694 l 139 556 l 0 556 l 0 833 z "},"у":{"ha":1111,"x_min":0,"x_max":972,"o":"m 0 833 l 417 833 l 417 694 l 278 694 l 278 139 l 694 139 l 694 694 l 556 694 l 556 833 l 972 833 l 972 694 l 833 694 l 833 -139 l 694 -139 l 694 -278 l 278 -278 l 278 -139 l 694 -139 l 694 0 l 278 0 l 278 139 l 139 139 l 139 694 l 0 694 l 0 833 z "},"ф":{"ha":1111,"x_min":0,"x_max":972,"o":"m 278 1111 l 694 1111 l 694 972 l 556 972 l 556 833 l 833 833 l 833 694 l 972 694 l 972 139 l 833 139 l 833 0 l 556 0 l 556 -139 l 694 -139 l 694 -278 l 278 -278 l 278 -139 l 417 -139 l 417 0 l 139 0 l 139 139 l 0 139 l 0 694 l 139 694 l 139 833 l 417 833 l 417 972 l 278 972 l 278 1111 m 139 139 l 417 139 l 417 694 l 139 694 l 139 139 m 556 139 l 833 139 l 833 694 l 556 694 l 556 139 z "},"х":{"ha":1111,"x_min":0,"x_max":972,"o":"m 0 833 l 417 833 l 417 694 l 278 694 l 278 556 l 694 556 l 694 694 l 556 694 l 556 833 l 972 833 l 972 694 l 833 694 l 833 556 l 694 556 l 694 417 l 833 417 l 833 139 l 972 139 l 972 0 l 556 0 l 556 139 l 694 139 l 694 417 l 278 417 l 278 139 l 417 139 l 417 0 l 0 0 l 0 139 l 139 139 l 139 417 l 278 417 l 278 556 l 139 556 l 139 694 l 0 694 l 0 833 z "},"ц":{"ha":1111,"x_min":0,"x_max":972,"o":"m 0 833 l 417 833 l 417 694 l 278 694 l 278 139 l 694 139 l 694 694 l 556 694 l 556 833 l 972 833 l 972 694 l 833 694 l 833 139 l 972 139 l 972 -139 l 833 -139 l 833 0 l 139 0 l 139 694 l 0 694 l 0 833 z "},"ч":{"ha":1111,"x_min":0,"x_max":972,"o":"m 0 833 l 417 833 l 417 694 l 278 694 l 278 417 l 694 417 l 694 694 l 556 694 l 556 833 l 972 833 l 972 694 l 833 694 l 833 139 l 972 139 l 972 0 l 556 0 l 556 139 l 694 139 l 694 278 l 278 278 l 278 417 l 139 417 l 139 694 l 0 694 l 0 833 z "},"ш":{"ha":1111,"x_min":0,"x_max":972,"o":"m 0 833 l 139 833 l 139 139 l 417 139 l 417 833 l 556 833 l 556 139 l 833 139 l 833 833 l 972 833 l 972 0 l 0 0 l 0 833 z "},"щ":{"ha":1250,"x_min":0,"x_max":1111,"o":"m 0 833 l 139 833 l 139 139 l 417 139 l 417 833 l 556 833 l 556 139 l 833 139 l 833 833 l 972 833 l 972 139 l 1111 139 l 1111 -139 l 972 -139 l 972 0 l 0 0 l 0 833 z "},"ъ":{"ha":1111,"x_min":0,"x_max":972,"o":"m 0 833 l 556 833 l 556 694 l 417 694 l 417 556 l 833 556 l 833 417 l 972 417 l 972 139 l 833 139 l 833 0 l 139 0 l 139 139 l 278 139 l 278 694 l 0 694 l 0 833 m 417 139 l 833 139 l 833 417 l 417 417 l 417 139 z "},"ы":{"ha":1389,"x_min":0,"x_max":1250,"o":"m 0 833 l 417 833 l 417 694 l 278 694 l 278 556 l 694 556 l 694 417 l 833 417 l 833 139 l 972 139 l 972 694 l 833 694 l 833 833 l 1250 833 l 1250 694 l 1111 694 l 1111 139 l 1250 139 l 1250 0 l 833 0 l 833 139 l 694 139 l 694 0 l 0 0 l 0 139 l 139 139 l 139 694 l 0 694 l 0 833 m 278 139 l 694 139 l 694 417 l 278 417 l 278 139 z "},"ь":{"ha":972,"x_min":0,"x_max":833,"o":"m 0 833 l 417 833 l 417 694 l 278 694 l 278 556 l 694 556 l 694 417 l 833 417 l 833 139 l 694 139 l 694 0 l 0 0 l 0 139 l 139 139 l 139 694 l 0 694 l 0 833 m 278 139 l 694 139 l 694 417 l 278 417 l 278 139 z "},"э":{"ha":833,"x_min":0,"x_max":694,"o":"m 0 833 l 556 833 l 556 694 l 694 694 l 694 139 l 556 139 l 556 0 l 0 0 l 0 278 l 139 278 l 139 139 l 556 139 l 556 417 l 278 417 l 278 556 l 556 556 l 556 694 l 139 694 l 139 556 l 0 556 l 0 833 z "},"ю":{"ha":1111,"x_min":0,"x_max":972,"o":"m 0 833 l 278 833 l 278 556 l 417 556 l 417 694 l 556 694 l 556 833 l 833 833 l 833 694 l 972 694 l 972 139 l 833 139 l 833 0 l 556 0 l 556 139 l 417 139 l 417 417 l 278 417 l 278 0 l 0 0 l 0 139 l 139 139 l 139 694 l 0 694 l 0 833 m 556 139 l 833 139 l 833 694 l 556 694 l 556 139 z "},"я":{"ha":972,"x_min":0,"x_max":833,"o":"m 0 694 l 139 694 l 139 833 l 833 833 l 833 694 l 694 694 l 694 139 l 833 139 l 833 0 l 556 0 l 556 278 l 417 278 l 417 139 l 278 139 l 278 0 l 0 0 l 0 139 l 278 139 l 278 278 l 139 278 l 139 417 l 0 417 l 0 694 m 139 417 l 556 417 l 556 694 l 139 694 l 139 417 z "},"ё":{"ha":833,"x_min":0,"x_max":694,"o":"m 0 694 l 139 694 l 139 833 l 556 833 l 556 694 l 694 694 l 694 278 l 139 278 l 139 139 l 694 139 l 694 0 l 139 0 l 139 139 l 0 139 l 0 694 m 139 417 l 556 417 l 556 694 l 139 694 l 139 417 m 417 1111 l 556 1111 l 556 972 l 417 972 l 417 1111 m 139 1111 l 278 1111 l 278 972 l 139 972 l 139 1111 z "},"ђ":{"ha":972,"x_min":0,"x_max":833,"o":"m 0 972 l 139 972 l 139 1111 l 278 1111 l 278 972 l 556 972 l 556 833 l 278 833 l 278 694 l 694 694 l 694 556 l 833 556 l 833 139 l 694 139 l 694 0 l 556 0 l 556 139 l 694 139 l 694 556 l 278 556 l 278 139 l 417 139 l 417 0 l 0 0 l 0 139 l 139 139 l 139 833 l 0 833 l 0 972 z "},"ѓ":{"ha":972,"x_min":0,"x_max":833,"o":"m 0 833 l 833 833 l 833 556 l 694 556 l 694 694 l 278 694 l 278 139 l 417 139 l 417 0 l 0 0 l 0 139 l 139 139 l 139 694 l 0 694 l 0 833 m 417 1111 l 556 1111 l 556 1250 l 694 1250 l 694 1111 l 556 1111 l 556 972 l 417 972 l 417 1111 z "},"є":{"ha":833,"x_min":0,"x_max":694,"o":"m 0 694 l 139 694 l 139 833 l 694 833 l 694 556 l 556 556 l 556 694 l 139 694 l 139 556 l 417 556 l 417 417 l 139 417 l 139 139 l 556 139 l 556 278 l 694 278 l 694 0 l 139 0 l 139 139 l 0 139 l 0 694 z "},"ѕ":{"ha":833,"x_min":0,"x_max":694,"o":"m 0 694 l 139 694 l 139 833 l 694 833 l 694 694 l 139 694 l 139 556 l 556 556 l 556 417 l 694 417 l 694 139 l 556 139 l 556 0 l 0 0 l 0 139 l 556 139 l 556 417 l 139 417 l 139 556 l 0 556 l 0 694 z "},"і":{"ha":556,"x_min":0,"x_max":417,"o":"m 0 833 l 278 833 l 278 139 l 417 139 l 417 0 l 0 0 l 0 139 l 139 139 l 139 694 l 0 694 l 0 833 m 139 1111 l 278 1111 l 278 972 l 139 972 l 139 1111 z "},"ї":{"ha":556,"x_min":0,"x_max":417,"o":"m 0 833 l 278 833 l 278 139 l 417 139 l 417 0 l 0 0 l 0 139 l 139 139 l 139 694 l 0 694 l 0 833 m 0 1111 l 139 1111 l 139 972 l 0 972 l 0 1111 m 278 1111 l 417 1111 l 417 972 l 278 972 l 278 1111 z "},"ј":{"ha":694,"x_min":0,"x_max":556,"o":"m 0 833 l 556 833 l 556 -139 l 417 -139 l 417 -278 l 0 -278 l 0 -139 l 417 -139 l 417 694 l 139 694 l 139 556 l 0 556 l 0 833 m 278 1111 l 417 1111 l 417 972 l 278 972 l 278 1111 z "},"љ":{"ha":1528,"x_min":0,"x_max":1389,"o":"m 556 139 l 694 139 l 694 694 l 278 694 l 278 139 l 417 139 l 417 0 l 0 0 l 0 139 l 139 139 l 139 694 l 278 694 l 278 833 l 972 833 l 972 694 l 833 694 l 833 556 l 1250 556 l 1250 417 l 1389 417 l 1389 139 l 1250 139 l 1250 0 l 556 0 l 556 139 m 1250 417 l 833 417 l 833 139 l 1250 139 l 1250 417 z "},"њ":{"ha":1528,"x_min":0,"x_max":1389,"o":"m 0 833 l 417 833 l 417 694 l 278 694 l 278 556 l 694 556 l 694 694 l 556 694 l 556 833 l 972 833 l 972 694 l 833 694 l 833 556 l 1250 556 l 1250 417 l 1389 417 l 1389 139 l 1250 139 l 1250 0 l 556 0 l 556 139 l 694 139 l 694 417 l 278 417 l 278 139 l 417 139 l 417 0 l 0 0 l 0 139 l 139 139 l 139 694 l 0 694 l 0 833 m 833 139 l 1250 139 l 1250 417 l 833 417 l 833 139 z "},"ћ":{"ha":1111,"x_min":0,"x_max":972,"o":"m 0 972 l 139 972 l 139 1111 l 278 1111 l 278 972 l 556 972 l 556 833 l 278 833 l 278 694 l 694 694 l 694 556 l 833 556 l 833 139 l 972 139 l 972 0 l 556 0 l 556 139 l 694 139 l 694 556 l 278 556 l 278 139 l 417 139 l 417 0 l 0 0 l 0 139 l 139 139 l 139 833 l 0 833 l 0 972 z "},"ќ":{"ha":1111,"x_min":0,"x_max":972,"o":"m 0 833 l 417 833 l 417 694 l 278 694 l 278 556 l 556 556 l 556 833 l 972 833 l 972 694 l 694 694 l 694 556 l 556 556 l 556 417 l 694 417 l 694 278 l 833 278 l 833 139 l 972 139 l 972 0 l 556 0 l 556 139 l 694 139 l 694 278 l 556 278 l 556 417 l 278 417 l 278 139 l 417 139 l 417 0 l 0 0 l 0 139 l 139 139 l 139 694 l 0 694 l 0 833 m 417 1111 l 556 1111 l 556 1250 l 694 1250 l 694 1111 l 556 1111 l 556 972 l 417 972 l 417 1111 z "},"ў":{"ha":1111,"x_min":0,"x_max":972,"o":"m 0 833 l 417 833 l 417 694 l 278 694 l 278 139 l 694 139 l 694 694 l 556 694 l 556 833 l 972 833 l 972 694 l 833 694 l 833 -139 l 694 -139 l 694 -278 l 278 -278 l 278 -139 l 694 -139 l 694 0 l 278 0 l 278 139 l 139 139 l 139 694 l 0 694 l 0 833 m 278 1250 l 417 1250 l 417 1111 l 556 1111 l 556 1250 l 694 1250 l 694 1111 l 556 1111 l 556 972 l 417 972 l 417 1111 l 278 1111 l 278 1250 z "},"џ":{"ha":1111,"x_min":0,"x_max":972,"o":"m 0 833 l 417 833 l 417 694 l 278 694 l 278 139 l 694 139 l 694 694 l 556 694 l 556 833 l 972 833 l 972 694 l 833 694 l 833 0 l 556 0 l 556 -278 l 417 -278 l 417 0 l 139 0 l 139 694 l 0 694 l 0 833 z "},"Ґ":{"ha":972,"x_min":0,"x_max":833,"o":"m 0 1111 l 694 1111 l 694 1250 l 833 1250 l 833 972 l 278 972 l 278 139 l 417 139 l 417 0 l 0 0 l 0 139 l 139 139 l 139 972 l 0 972 l 0 1111 z "},"ґ":{"ha":972,"x_min":0,"x_max":833,"o":"m 0 833 l 694 833 l 694 972 l 833 972 l 833 694 l 278 694 l 278 139 l 417 139 l 417 0 l 0 0 l 0 139 l 139 139 l 139 694 l 0 694 l 0 833 z "},"№":{"ha":1250,"x_min":0,"x_max":1111,"o":"m 0 1111 l 417 1111 l 417 972 l 278 972 l 278 833 l 417 833 l 417 694 l 556 694 l 556 556 l 694 556 l 694 972 l 556 972 l 556 1111 l 1111 1111 l 1111 972 l 833 972 l 833 139 l 972 139 l 972 0 l 556 0 l 556 139 l 694 139 l 694 417 l 556 417 l 556 556 l 417 556 l 417 694 l 278 694 l 278 139 l 417 139 l 417 0 l 0 0 l 0 139 l 139 139 l 139 972 l 0 972 l 0 1111 z "},"#":{"ha":833,"x_min":0,"x_max":694,"o":"m 0 833 l 139 833 l 139 1111 l 278 1111 l 278 833 l 417 833 l 417 1111 l 556 1111 l 556 833 l 694 833 l 694 694 l 556 694 l 556 417 l 694 417 l 694 278 l 556 278 l 556 0 l 417 0 l 417 278 l 278 278 l 278 0 l 139 0 l 139 278 l 0 278 l 0 417 l 139 417 l 139 694 l 0 694 l 0 833 m 278 417 l 417 417 l 417 694 l 278 694 l 278 417 z "},"!":{"ha":278,"x_min":0,"x_max":139,"o":"m 0 1111 l 139 1111 l 139 278 l 0 278 l 0 1111 m 0 139 l 139 139 l 139 0 l 0 0 l 0 139 z "},"\"":{"ha":556,"x_min":0,"x_max":417,"o":"m 0 1111 l 139 1111 l 139 694 l 0 694 l 0 1111 m 278 1111 l 417 1111 l 417 694 l 278 694 l 278 1111 z "}}}
